<svg xmlns="http://www.w3.org/2000/svg" xmlns:xlink="http://www.w3.org/1999/xlink" width="500" zoomAndPan="magnify" viewBox="0 0 375 374.999991" height="500" preserveAspectRatio="xMidYMid meet" version="1.0"><defs><g/></defs><g fill="rgb(0%, 0%, 0%)" fill-opacity="0.4"><g transform="translate(57.937597, 205.010127)"><g><path d="M 2.742188 -19.386719 C 2.742188 -17.496094 2.742188 -15.734375 2.742188 -13.96875 C 2.808594 -11.425781 2.808594 -8.8125 2.675781 -6.203125 C 2.675781 -4.832031 2.609375 -3.394531 2.609375 -1.957031 C 2.609375 -1.632812 2.609375 -1.304688 2.675781 -0.980469 C 2.675781 -0.523438 3.265625 0 3.722656 0 C 3.851562 0 4.046875 0.0664062 4.179688 0.0664062 C 6.136719 0.0664062 8.03125 0.0664062 9.988281 0.0664062 C 10.117188 0.0664062 10.3125 0 10.445312 0 C 11.359375 -0.0664062 12.011719 -0.914062 12.140625 -1.632812 C 12.140625 -2.089844 12.207031 -2.480469 12.207031 -2.871094 C 12.207031 -3.917969 12.207031 -4.894531 12.207031 -5.875 C 12.207031 -7.246094 12.207031 -8.550781 12.207031 -9.921875 C 12.207031 -10.769531 12.207031 -11.554688 12.402344 -12.402344 C 12.535156 -12.992188 12.535156 -13.578125 12.535156 -14.164062 C 12.597656 -15.078125 12.535156 -15.992188 12.597656 -16.90625 C 12.597656 -17.234375 12.597656 -17.558594 12.664062 -17.886719 C 12.730469 -18.277344 12.925781 -18.539062 13.25 -18.671875 C 13.382812 -18.734375 13.511719 -18.867188 13.707031 -18.867188 C 13.96875 -18.929688 14.230469 -18.929688 14.425781 -18.929688 C 16.515625 -18.996094 16.515625 -18.996094 19.191406 -19.386719 C 20.628906 -19.453125 22 -19.84375 23.371094 -20.039062 C 25.132812 -20.367188 26.765625 -20.953125 28.265625 -21.867188 C 28.917969 -22.324219 29.570312 -22.71875 30.160156 -23.175781 C 31.335938 -24.089844 32.378906 -25.199219 33.097656 -26.503906 C 33.75 -27.679688 34.335938 -28.917969 34.664062 -30.226562 C 34.988281 -31.464844 34.925781 -32.707031 34.859375 -33.945312 C 34.859375 -34.46875 34.859375 -34.988281 34.792969 -35.445312 C 34.597656 -36.882812 34.140625 -38.1875 33.226562 -39.363281 C 32.574219 -40.148438 31.988281 -40.996094 31.269531 -41.648438 C 31.007812 -41.976562 30.679688 -42.234375 30.355469 -42.496094 C 29.570312 -43.019531 28.855469 -43.542969 28.070312 -44.0625 C 27.351562 -44.457031 26.570312 -44.71875 25.785156 -45.042969 C 24.285156 -45.238281 22.847656 -45.628906 21.28125 -45.628906 C 19.714844 -45.566406 18.082031 -45.628906 16.515625 -45.628906 C 12.664062 -45.628906 8.8125 -45.628906 4.960938 -45.628906 C 4.570312 -45.628906 4.179688 -45.628906 3.722656 -45.5 C 3.589844 -45.5 3.199219 -45.238281 3.199219 -45.042969 C 3.132812 -44.914062 3.066406 -44.71875 3.066406 -44.585938 C 2.742188 -42.300781 2.675781 -40.082031 2.871094 -37.796875 C 3.003906 -36.558594 3.066406 -35.316406 3.066406 -34.074219 C 3.066406 -32.835938 3.066406 -31.53125 3.003906 -30.289062 C 2.9375 -29.703125 2.9375 -29.113281 2.9375 -28.527344 C 2.871094 -25.460938 3.066406 -22.324219 2.742188 -19.386719 Z M 16.386719 -42.691406 C 16.644531 -42.691406 16.90625 -42.691406 17.167969 -42.691406 C 18.410156 -42.757812 19.648438 -42.496094 20.824219 -42.105469 C 21.738281 -41.777344 22.457031 -41.191406 23.042969 -40.472656 C 23.695312 -39.753906 24.21875 -38.839844 24.609375 -37.925781 C 24.9375 -37.210938 25.261719 -36.425781 25.261719 -35.578125 C 25.261719 -35.382812 25.328125 -35.25 25.328125 -35.054688 C 25.589844 -33.816406 25.523438 -32.574219 25.328125 -31.335938 C 25.261719 -30.550781 25.066406 -29.898438 24.742188 -29.179688 C 24.023438 -27.484375 23.109375 -25.917969 22 -24.414062 C 21.609375 -23.890625 21.152344 -23.433594 20.5625 -23.042969 C 20.367188 -22.914062 20.171875 -22.78125 19.910156 -22.652344 C 18.734375 -21.804688 17.429688 -21.347656 15.992188 -21.152344 C 15.144531 -21.085938 14.296875 -21.019531 13.511719 -21.019531 C 13.121094 -20.953125 12.664062 -21.347656 12.664062 -21.738281 C 12.664062 -21.867188 12.597656 -21.933594 12.597656 -22 C 12.597656 -22.261719 12.597656 -22.523438 12.597656 -22.78125 C 12.535156 -28.59375 12.535156 -34.46875 12.664062 -40.277344 C 12.664062 -40.667969 12.664062 -41.125 12.730469 -41.519531 C 12.730469 -41.714844 12.792969 -41.84375 12.925781 -41.976562 C 13.054688 -42.300781 13.316406 -42.496094 13.644531 -42.5625 C 14.101562 -42.628906 14.492188 -42.691406 14.882812 -42.691406 C 15.40625 -42.757812 15.929688 -42.691406 16.386719 -42.691406 Z M 16.386719 -42.691406 "/></g></g></g><g fill="rgb(0%, 0%, 0%)" fill-opacity="0.4"><g transform="translate(93.446391, 205.010127)"><g><path d="M 27.808594 -18.867188 C 27.808594 -19.648438 27.742188 -20.238281 27.808594 -20.824219 C 27.808594 -21.738281 27.742188 -22.652344 27.546875 -23.566406 C 27.417969 -23.890625 27.417969 -24.21875 27.351562 -24.546875 C 27.15625 -25.65625 26.699219 -26.632812 26.046875 -27.484375 C 25.261719 -28.527344 24.347656 -29.375 23.371094 -30.160156 C 22.71875 -30.679688 22.066406 -31.136719 21.214844 -31.464844 C 20.5625 -31.726562 19.84375 -31.988281 19.128906 -32.3125 C 18.605469 -32.507812 18.015625 -32.640625 17.429688 -32.640625 C 16.84375 -32.640625 16.253906 -32.640625 15.667969 -32.640625 C 15.078125 -32.640625 14.558594 -32.507812 13.96875 -32.378906 C 12.078125 -31.988281 10.3125 -31.203125 8.488281 -30.550781 C 7.703125 -30.226562 7.050781 -29.769531 6.398438 -29.179688 C 5.484375 -28.332031 4.699219 -27.351562 4.113281 -26.242188 C 3.980469 -25.917969 3.851562 -25.589844 3.722656 -25.328125 C 3.65625 -25.132812 3.65625 -25.003906 3.589844 -24.804688 C 3.589844 -24.546875 3.65625 -24.347656 3.785156 -24.089844 C 3.917969 -23.828125 4.308594 -23.695312 4.636719 -23.761719 C 4.894531 -23.828125 5.09375 -23.957031 5.222656 -24.152344 C 5.679688 -24.675781 5.941406 -25.328125 6.265625 -25.917969 C 6.722656 -26.632812 7.246094 -27.222656 7.898438 -27.742188 C 8.289062 -28.070312 8.683594 -28.398438 9.140625 -28.65625 C 9.597656 -28.984375 10.183594 -29.179688 10.769531 -29.246094 C 11.359375 -29.3125 11.945312 -29.441406 12.535156 -29.441406 C 14.230469 -29.636719 15.601562 -28.917969 16.710938 -27.679688 C 16.90625 -27.417969 17.101562 -27.089844 17.167969 -26.765625 C 17.558594 -25.65625 17.886719 -24.546875 17.886719 -23.371094 C 17.820312 -22.78125 17.953125 -22.195312 18.015625 -21.609375 C 18.148438 -20.433594 18.015625 -19.257812 17.757812 -18.148438 C 17.757812 -17.886719 17.300781 -17.558594 17.039062 -17.496094 C 16.777344 -17.496094 16.515625 -17.496094 16.320312 -17.496094 C 15.535156 -17.558594 14.753906 -17.496094 14.035156 -17.429688 C 13.382812 -17.300781 12.730469 -17.234375 12.078125 -17.101562 C 11.683594 -17.101562 11.359375 -17.039062 11.03125 -16.972656 C 9.855469 -16.582031 8.683594 -16.1875 7.574219 -15.601562 C 6.003906 -14.820312 4.765625 -13.773438 3.722656 -12.46875 C 3.328125 -11.945312 2.9375 -11.359375 2.675781 -10.707031 C 2.21875 -9.597656 1.894531 -8.355469 1.828125 -7.117188 C 1.699219 -5.351562 2.152344 -3.785156 3.199219 -2.351562 C 3.589844 -1.828125 4.113281 -1.371094 4.699219 -1.042969 C 5.808594 -0.457031 6.984375 -0.0664062 8.289062 -0.0664062 C 8.945312 -0.0664062 9.597656 -0.0664062 10.25 -0.0664062 C 10.511719 -0.0664062 10.769531 -0.0664062 11.03125 -0.128906 C 12.664062 -0.523438 14.296875 -0.914062 15.734375 -1.761719 C 16.449219 -2.21875 17.234375 -2.546875 17.953125 -2.9375 C 18.214844 -3.066406 18.671875 -3.003906 18.867188 -2.742188 C 19.0625 -2.546875 19.191406 -2.414062 19.386719 -2.21875 C 19.585938 -1.957031 19.84375 -1.699219 20.039062 -1.5 C 20.628906 -0.914062 21.347656 -0.652344 22.128906 -0.585938 C 22.914062 -0.585938 23.761719 -0.585938 24.609375 -0.585938 C 25.132812 -0.585938 25.589844 -0.785156 25.980469 -1.109375 C 26.242188 -1.371094 26.4375 -1.632812 26.632812 -1.894531 C 27.089844 -2.675781 27.351562 -3.589844 27.351562 -4.503906 C 27.351562 -5.09375 27.351562 -5.679688 27.351562 -6.265625 C 27.417969 -7.898438 27.351562 -9.464844 27.417969 -11.03125 C 27.417969 -12.402344 27.417969 -13.707031 27.613281 -15.078125 C 27.742188 -16.386719 27.808594 -17.757812 27.808594 -18.867188 Z M 18.34375 -8.878906 C 18.277344 -8.550781 18.277344 -8.226562 18.214844 -7.898438 C 18.214844 -7.574219 18.015625 -7.3125 17.757812 -7.050781 C 17.496094 -6.855469 17.234375 -6.660156 16.90625 -6.59375 C 15.601562 -6.203125 14.296875 -6.070312 12.992188 -6.003906 C 12.273438 -5.941406 11.683594 -6.070312 11.03125 -6.398438 C 10.183594 -6.855469 9.660156 -7.574219 9.269531 -8.421875 C 9.203125 -8.683594 9.140625 -8.945312 9.074219 -9.140625 C 8.746094 -10.183594 8.8125 -11.097656 9.269531 -12.078125 C 9.597656 -12.792969 10.054688 -13.316406 10.769531 -13.644531 C 11.683594 -13.96875 12.664062 -14.164062 13.644531 -14.425781 C 13.707031 -14.425781 13.839844 -14.425781 13.90625 -14.425781 C 15.078125 -14.492188 16.253906 -14.492188 17.363281 -14.101562 C 17.625 -14.035156 17.757812 -13.839844 17.820312 -13.644531 C 17.886719 -13.511719 17.886719 -13.449219 17.953125 -13.382812 C 18.015625 -12.207031 18.082031 -11.03125 18.277344 -9.921875 C 18.277344 -9.597656 18.277344 -9.269531 18.34375 -8.878906 Z M 18.34375 -8.878906 "/></g></g></g><g fill="rgb(0%, 0%, 0%)" fill-opacity="0.4"><g transform="translate(123.537484, 205.010127)"><g><path d="M 21.738281 -3.785156 C 21.804688 -3.65625 21.867188 -3.589844 21.933594 -3.523438 C 21.933594 -3.328125 22 -3.199219 22.066406 -3.003906 C 22.066406 -2.546875 22.066406 -2.023438 22.066406 -1.5 C 22.128906 -1.304688 22.195312 -1.042969 22.261719 -0.785156 C 22.390625 -0.390625 22.652344 -0.0664062 23.109375 0 C 23.5 0.0664062 23.957031 0.128906 24.347656 0.128906 C 25.851562 0.195312 27.351562 0.195312 28.855469 0.128906 C 29.113281 0.128906 29.375 0.128906 29.636719 0.128906 C 29.898438 0.0664062 30.09375 0 30.355469 -0.0664062 C 30.679688 -0.195312 30.878906 -0.457031 30.941406 -0.785156 C 31.007812 -0.980469 31.007812 -1.175781 31.007812 -1.304688 C 31.074219 -2.480469 31.136719 -3.65625 31.136719 -4.832031 C 31.074219 -7.3125 31.074219 -9.855469 31.007812 -12.339844 C 30.941406 -15.277344 31.007812 -18.214844 31.074219 -21.152344 C 31.074219 -24.023438 31.074219 -26.832031 31.074219 -29.703125 C 31.074219 -30.09375 31.007812 -30.550781 30.941406 -30.941406 C 30.8125 -31.53125 30.484375 -31.988281 29.898438 -32.25 C 29.507812 -32.445312 29.113281 -32.574219 28.65625 -32.574219 C 27.222656 -32.574219 25.851562 -32.574219 24.414062 -32.574219 C 24.21875 -32.574219 24.089844 -32.507812 23.890625 -32.507812 C 23.566406 -32.445312 23.042969 -31.988281 22.980469 -31.726562 C 22.78125 -30.355469 22.585938 -29.050781 22.585938 -27.679688 C 22.585938 -24.285156 22.585938 -20.824219 22.523438 -17.429688 C 22.523438 -16.386719 22.523438 -15.40625 22.457031 -14.425781 C 22.324219 -12.792969 22.324219 -11.226562 22.261719 -9.660156 C 22.261719 -9.203125 22.324219 -8.8125 22.261719 -8.355469 C 22.195312 -8.03125 22.128906 -7.703125 22 -7.375 C 21.933594 -7.179688 21.804688 -6.984375 21.609375 -6.789062 C 20.757812 -6.070312 19.84375 -5.484375 18.867188 -5.027344 C 18.472656 -4.832031 18.082031 -4.699219 17.691406 -4.570312 C 16.582031 -4.308594 15.40625 -4.242188 14.230469 -4.308594 C 13.707031 -4.375 13.1875 -4.503906 12.730469 -4.636719 C 12.011719 -4.960938 11.488281 -5.417969 11.359375 -6.265625 C 11.226562 -7.050781 11.226562 -7.769531 11.226562 -8.550781 C 11.226562 -11.683594 11.164062 -14.882812 11.226562 -18.082031 C 11.226562 -21.152344 11.226562 -24.285156 11.359375 -27.351562 C 11.425781 -28.265625 11.359375 -29.179688 11.292969 -30.09375 C 11.292969 -30.617188 11.097656 -31.074219 10.902344 -31.53125 C 10.769531 -31.792969 10.574219 -31.988281 10.378906 -32.117188 C 9.921875 -32.378906 9.464844 -32.574219 8.945312 -32.574219 C 7.507812 -32.574219 6.136719 -32.574219 4.699219 -32.574219 C 4.503906 -32.574219 4.375 -32.574219 4.179688 -32.574219 C 3.851562 -32.507812 3.589844 -32.3125 3.394531 -31.988281 C 3.132812 -31.660156 2.9375 -31.269531 2.9375 -30.878906 C 2.9375 -28.398438 2.871094 -25.980469 2.742188 -23.566406 C 2.742188 -23.433594 2.742188 -23.238281 2.742188 -23.042969 C 2.675781 -21.152344 2.742188 -19.191406 2.609375 -17.300781 C 2.480469 -13.773438 2.609375 -10.25 2.480469 -6.722656 C 2.480469 -6.003906 2.609375 -5.289062 2.871094 -4.503906 C 2.9375 -4.179688 3.132812 -3.917969 3.328125 -3.65625 C 4.242188 -2.609375 5.15625 -1.699219 6.265625 -0.914062 C 7.050781 -0.390625 7.832031 0 8.8125 0.128906 C 9.464844 0.195312 10.054688 0.457031 10.769531 0.523438 C 11.75 0.523438 12.792969 0.585938 13.773438 0.585938 C 14.363281 0.585938 14.949219 0.457031 15.472656 0.195312 C 16.1875 -0.0664062 16.84375 -0.390625 17.496094 -0.785156 C 18.148438 -1.175781 18.734375 -1.566406 19.324219 -2.089844 C 19.910156 -2.546875 20.496094 -3.066406 21.085938 -3.523438 C 21.28125 -3.65625 21.542969 -3.65625 21.738281 -3.785156 Z M 21.738281 -3.785156 "/></g></g></g><g fill="rgb(0%, 0%, 0%)" fill-opacity="0.4"><g transform="translate(157.283889, 205.010127)"><g><path d="M 2.675781 -21.867188 C 2.742188 -21.867188 2.742188 -21.867188 2.742188 -21.867188 C 2.742188 -18.34375 2.742188 -14.820312 2.675781 -11.292969 C 2.675781 -10.707031 2.675781 -10.183594 2.609375 -9.597656 C 2.546875 -8.160156 2.480469 -6.722656 2.414062 -5.289062 C 2.414062 -5.09375 2.414062 -4.832031 2.414062 -4.570312 C 2.480469 -3.589844 2.546875 -2.546875 2.609375 -1.566406 C 2.609375 -1.304688 2.675781 -1.042969 2.742188 -0.847656 C 2.871094 -0.390625 3.394531 0 3.917969 0.0664062 C 4.046875 0.0664062 4.242188 0.0664062 4.375 0.0664062 C 6.070312 0.0664062 7.703125 0.0664062 9.398438 0.0664062 C 9.660156 0.0664062 9.921875 0 10.117188 -0.0664062 C 10.511719 -0.0664062 10.769531 -0.195312 11.097656 -0.390625 C 11.425781 -0.652344 11.683594 -0.980469 11.75 -1.371094 C 11.816406 -1.566406 11.816406 -1.699219 11.816406 -1.894531 C 11.945312 -3.066406 12.011719 -4.242188 12.078125 -5.417969 C 12.078125 -6.722656 12.207031 -8.09375 11.882812 -9.398438 C 11.75 -9.792969 11.75 -10.183594 11.75 -10.640625 C 11.75 -11.292969 11.75 -11.945312 11.75 -12.664062 C 11.75 -22.195312 11.816406 -31.726562 11.816406 -41.257812 C 11.816406 -42.039062 11.816406 -42.890625 11.75 -43.738281 C 11.75 -44 11.75 -44.261719 11.683594 -44.457031 C 11.621094 -44.847656 11.359375 -45.109375 11.03125 -45.238281 C 10.769531 -45.304688 10.445312 -45.433594 10.117188 -45.433594 C 8.421875 -45.5 6.789062 -45.5 5.09375 -45.5 C 4.699219 -45.5 4.242188 -45.304688 3.917969 -45.109375 C 3.589844 -44.914062 3.394531 -44.71875 3.265625 -44.390625 C 2.9375 -43.347656 2.742188 -42.234375 2.742188 -41.191406 C 2.742188 -39.886719 2.675781 -38.644531 2.675781 -37.40625 C 2.675781 -32.25 2.675781 -27.027344 2.675781 -21.867188 Z M 2.675781 -21.867188 "/></g></g></g><g fill="rgb(0%, 0%, 0%)" fill-opacity="0.4"><g transform="translate(171.774614, 205.010127)"><g/></g></g><g fill="rgb(0%, 0%, 0%)" fill-opacity="0.4"><g transform="translate(184.764047, 205.010127)"><g><path d="M 22.128906 -14.425781 C 23.304688 -14.425781 24.480469 -14.425781 25.65625 -14.425781 C 25.917969 -14.425781 26.175781 -14.425781 26.4375 -14.363281 C 26.570312 -14.296875 26.699219 -14.230469 26.832031 -14.101562 C 27.15625 -13.839844 27.417969 -13.511719 27.546875 -13.121094 C 27.941406 -12.078125 28.332031 -11.097656 28.722656 -10.054688 C 28.855469 -9.726562 28.984375 -9.464844 29.050781 -9.140625 C 29.570312 -6.660156 30.550781 -4.308594 31.203125 -1.894531 C 31.335938 -1.566406 31.464844 -1.304688 31.59375 -0.980469 C 31.855469 -0.457031 32.25 -0.261719 32.769531 -0.128906 C 33.097656 0 33.421875 0 33.75 0 C 35.902344 0 38.125 -0.0664062 40.277344 -0.128906 C 40.539062 -0.128906 40.800781 -0.195312 40.996094 -0.261719 C 41.386719 -0.390625 41.648438 -0.980469 41.519531 -1.304688 C 41.320312 -1.828125 41.125 -2.414062 40.929688 -2.9375 C 40.210938 -4.636719 39.558594 -6.332031 38.972656 -8.09375 C 38.777344 -8.683594 38.644531 -9.203125 38.449219 -9.792969 C 37.40625 -12.402344 36.425781 -15.078125 35.121094 -17.625 C 34.792969 -18.277344 34.46875 -18.996094 34.207031 -19.714844 C 33.621094 -21.28125 33.03125 -22.847656 32.574219 -24.414062 C 32.050781 -26.242188 31.464844 -28.136719 30.679688 -29.898438 C 29.507812 -32.574219 28.527344 -35.316406 27.546875 -38.058594 C 26.960938 -39.820312 26.175781 -41.519531 25.460938 -43.148438 C 25.261719 -43.542969 25.066406 -43.933594 24.804688 -44.261719 C 24.546875 -44.71875 24.152344 -45.042969 23.632812 -45.109375 C 21.28125 -45.628906 18.800781 -45.695312 16.386719 -45.628906 C 16.253906 -45.628906 16.058594 -45.566406 15.929688 -45.566406 C 15.734375 -45.5 15.601562 -45.371094 15.472656 -45.304688 C 15.210938 -45.109375 15.015625 -44.847656 14.882812 -44.519531 C 14.363281 -43.542969 14.035156 -42.496094 13.578125 -41.519531 C 13.1875 -39.691406 12.535156 -37.992188 12.140625 -36.164062 C 11.816406 -34.597656 11.359375 -33.097656 10.835938 -31.59375 C 10.378906 -30.355469 9.988281 -29.050781 9.660156 -27.808594 C 9.464844 -27.089844 9.269531 -26.308594 9.007812 -25.589844 C 8.683594 -24.742188 8.550781 -23.828125 8.289062 -22.980469 C 8.03125 -22 7.703125 -21.019531 7.441406 -20.105469 C 7.3125 -19.585938 7.117188 -19.128906 6.984375 -18.671875 C 6.660156 -17.234375 6.203125 -15.929688 5.746094 -14.558594 C 4.960938 -12.078125 4.179688 -9.660156 3.328125 -7.179688 C 2.675781 -5.222656 2.089844 -3.199219 1.371094 -1.242188 C 1.304688 -1.042969 1.304688 -0.914062 1.304688 -0.71875 C 1.304688 -0.652344 1.304688 -0.585938 1.371094 -0.523438 C 1.5 -0.261719 1.632812 -0.128906 1.894531 -0.0664062 C 2.414062 0.0664062 2.9375 0 3.394531 0 C 4.308594 0.0664062 4.832031 -0.390625 5.15625 -1.175781 C 5.222656 -1.304688 5.351562 -1.4375 5.351562 -1.632812 C 5.808594 -3.199219 6.398438 -4.765625 6.789062 -6.398438 C 6.917969 -6.984375 7.050781 -7.574219 7.246094 -8.09375 C 7.574219 -9.660156 8.160156 -11.164062 8.617188 -12.664062 C 8.945312 -13.578125 9.660156 -13.839844 10.378906 -13.90625 C 10.902344 -13.90625 11.359375 -13.90625 11.882812 -13.90625 C 12.792969 -13.90625 13.707031 -13.96875 14.621094 -13.96875 C 15.210938 -14.035156 15.796875 -14.035156 16.386719 -14.164062 C 17.496094 -14.363281 18.539062 -14.425781 19.648438 -14.425781 C 20.496094 -14.425781 21.28125 -14.425781 22.128906 -14.425781 Z M 16.320312 -16.386719 C 14.753906 -16.386719 13.121094 -16.386719 11.554688 -16.386719 C 11.226562 -16.386719 10.902344 -16.449219 10.574219 -16.515625 C 10.3125 -16.515625 9.988281 -16.972656 10.054688 -17.234375 C 10.183594 -17.496094 10.183594 -17.757812 10.3125 -17.953125 C 10.769531 -19.257812 11.097656 -20.496094 11.425781 -21.804688 C 12.46875 -25.523438 12.339844 -25.328125 13.511719 -28.722656 C 14.558594 -31.726562 15.535156 -34.792969 16.515625 -37.796875 C 16.582031 -37.925781 16.644531 -38.058594 16.710938 -38.253906 C 16.777344 -38.253906 16.84375 -38.320312 16.90625 -38.382812 C 17.039062 -38.449219 17.234375 -38.382812 17.300781 -38.253906 C 17.625 -37.925781 17.757812 -37.472656 17.886719 -37.144531 C 18.148438 -36.425781 18.34375 -35.707031 18.539062 -34.988281 C 18.929688 -33.683594 19.386719 -32.445312 19.976562 -31.203125 C 21.152344 -28.65625 22.324219 -26.046875 23.433594 -23.5 C 23.566406 -23.238281 23.632812 -22.980469 23.761719 -22.78125 C 24.285156 -21.152344 24.871094 -19.453125 25.523438 -17.820312 C 25.589844 -17.757812 25.589844 -17.691406 25.589844 -17.625 C 25.65625 -17.300781 25.394531 -16.90625 25.066406 -16.90625 C 22.980469 -16.710938 20.890625 -16.582031 18.800781 -16.386719 C 18.015625 -16.386719 17.167969 -16.386719 16.320312 -16.386719 Z M 16.320312 -16.386719 "/></g></g></g><g fill="rgb(0%, 0%, 0%)" fill-opacity="0.4"><g transform="translate(227.452932, 205.010127)"><g><path d="M 2.675781 -21.867188 C 2.742188 -21.867188 2.742188 -21.867188 2.742188 -21.867188 C 2.742188 -18.34375 2.742188 -14.820312 2.675781 -11.292969 C 2.675781 -10.707031 2.675781 -10.183594 2.609375 -9.597656 C 2.546875 -8.160156 2.480469 -6.722656 2.414062 -5.289062 C 2.414062 -5.09375 2.414062 -4.832031 2.414062 -4.570312 C 2.480469 -3.589844 2.546875 -2.546875 2.609375 -1.566406 C 2.609375 -1.304688 2.675781 -1.042969 2.742188 -0.847656 C 2.871094 -0.390625 3.394531 0 3.917969 0.0664062 C 4.046875 0.0664062 4.242188 0.0664062 4.375 0.0664062 C 6.070312 0.0664062 7.703125 0.0664062 9.398438 0.0664062 C 9.660156 0.0664062 9.921875 0 10.117188 -0.0664062 C 10.511719 -0.0664062 10.769531 -0.195312 11.097656 -0.390625 C 11.425781 -0.652344 11.683594 -0.980469 11.75 -1.371094 C 11.816406 -1.566406 11.816406 -1.699219 11.816406 -1.894531 C 11.945312 -3.066406 12.011719 -4.242188 12.078125 -5.417969 C 12.078125 -6.722656 12.207031 -8.09375 11.882812 -9.398438 C 11.75 -9.792969 11.75 -10.183594 11.75 -10.640625 C 11.75 -11.292969 11.75 -11.945312 11.75 -12.664062 C 11.75 -22.195312 11.816406 -31.726562 11.816406 -41.257812 C 11.816406 -42.039062 11.816406 -42.890625 11.75 -43.738281 C 11.75 -44 11.75 -44.261719 11.683594 -44.457031 C 11.621094 -44.847656 11.359375 -45.109375 11.03125 -45.238281 C 10.769531 -45.304688 10.445312 -45.433594 10.117188 -45.433594 C 8.421875 -45.5 6.789062 -45.5 5.09375 -45.5 C 4.699219 -45.5 4.242188 -45.304688 3.917969 -45.109375 C 3.589844 -44.914062 3.394531 -44.71875 3.265625 -44.390625 C 2.9375 -43.347656 2.742188 -42.234375 2.742188 -41.191406 C 2.742188 -39.886719 2.675781 -38.644531 2.675781 -37.40625 C 2.675781 -32.25 2.675781 -27.027344 2.675781 -21.867188 Z M 2.675781 -21.867188 "/></g></g></g><g fill="rgb(0%, 0%, 0%)" fill-opacity="0.4"><g transform="translate(241.943658, 205.010127)"><g><path d="M 2.675781 -21.867188 C 2.742188 -21.867188 2.742188 -21.867188 2.742188 -21.867188 C 2.742188 -18.34375 2.742188 -14.820312 2.675781 -11.292969 C 2.675781 -10.707031 2.675781 -10.183594 2.609375 -9.597656 C 2.546875 -8.160156 2.480469 -6.722656 2.414062 -5.289062 C 2.414062 -5.09375 2.414062 -4.832031 2.414062 -4.570312 C 2.480469 -3.589844 2.546875 -2.546875 2.609375 -1.566406 C 2.609375 -1.304688 2.675781 -1.042969 2.742188 -0.847656 C 2.871094 -0.390625 3.394531 0 3.917969 0.0664062 C 4.046875 0.0664062 4.242188 0.0664062 4.375 0.0664062 C 6.070312 0.0664062 7.703125 0.0664062 9.398438 0.0664062 C 9.660156 0.0664062 9.921875 0 10.117188 -0.0664062 C 10.511719 -0.0664062 10.769531 -0.195312 11.097656 -0.390625 C 11.425781 -0.652344 11.683594 -0.980469 11.75 -1.371094 C 11.816406 -1.566406 11.816406 -1.699219 11.816406 -1.894531 C 11.945312 -3.066406 12.011719 -4.242188 12.078125 -5.417969 C 12.078125 -6.722656 12.207031 -8.09375 11.882812 -9.398438 C 11.75 -9.792969 11.75 -10.183594 11.75 -10.640625 C 11.75 -11.292969 11.75 -11.945312 11.75 -12.664062 C 11.75 -22.195312 11.816406 -31.726562 11.816406 -41.257812 C 11.816406 -42.039062 11.816406 -42.890625 11.75 -43.738281 C 11.75 -44 11.75 -44.261719 11.683594 -44.457031 C 11.621094 -44.847656 11.359375 -45.109375 11.03125 -45.238281 C 10.769531 -45.304688 10.445312 -45.433594 10.117188 -45.433594 C 8.421875 -45.5 6.789062 -45.5 5.09375 -45.5 C 4.699219 -45.5 4.242188 -45.304688 3.917969 -45.109375 C 3.589844 -44.914062 3.394531 -44.71875 3.265625 -44.390625 C 2.9375 -43.347656 2.742188 -42.234375 2.742188 -41.191406 C 2.742188 -39.886719 2.675781 -38.644531 2.675781 -37.40625 C 2.675781 -32.25 2.675781 -27.027344 2.675781 -21.867188 Z M 2.675781 -21.867188 "/></g></g></g><g fill="rgb(0%, 0%, 0%)" fill-opacity="0.4"><g transform="translate(256.434395, 205.010127)"><g><path d="M 17.101562 0.195312 C 17.558594 0.195312 18.082031 0.261719 18.605469 0.261719 C 20.039062 0.261719 21.410156 0.0664062 22.78125 -0.457031 C 24.546875 -1.175781 26.242188 -2.023438 27.875 -3.066406 C 28.136719 -3.199219 28.332031 -3.394531 28.527344 -3.523438 C 28.855469 -3.785156 28.984375 -4.179688 29.050781 -4.636719 C 29.113281 -5.222656 28.59375 -5.746094 28.003906 -5.679688 C 27.546875 -5.613281 27.15625 -5.613281 26.765625 -5.417969 C 25.980469 -5.09375 25.132812 -4.960938 24.347656 -4.699219 C 23.433594 -4.4375 22.523438 -4.375 21.609375 -4.4375 C 20.757812 -4.503906 19.976562 -4.765625 19.191406 -5.027344 C 17.886719 -5.417969 16.710938 -6.070312 15.734375 -7.050781 C 14.558594 -8.09375 13.644531 -9.398438 12.792969 -10.707031 C 12.664062 -10.902344 12.597656 -11.03125 12.535156 -11.164062 C 12.011719 -12.597656 11.425781 -13.96875 11.097656 -15.472656 C 11.097656 -15.667969 11.425781 -16.1875 11.621094 -16.253906 C 11.816406 -16.320312 11.945312 -16.386719 12.078125 -16.449219 C 13.25 -16.644531 14.425781 -16.710938 15.601562 -16.710938 C 17.363281 -16.710938 19.128906 -16.710938 20.890625 -16.710938 C 23.5 -16.710938 26.046875 -16.84375 28.65625 -16.972656 C 28.917969 -16.972656 29.179688 -17.039062 29.375 -17.101562 C 29.769531 -17.167969 30.027344 -17.363281 30.160156 -17.625 C 30.355469 -17.953125 30.484375 -18.277344 30.550781 -18.605469 C 30.679688 -19.648438 30.550781 -20.757812 30.289062 -21.804688 C 30.160156 -22.390625 30.027344 -22.980469 29.898438 -23.5 C 29.636719 -24.546875 29.441406 -25.65625 29.050781 -26.699219 C 28.722656 -27.679688 28.136719 -28.460938 27.351562 -29.113281 C 25.71875 -30.550781 23.890625 -31.726562 21.738281 -32.3125 C 21.152344 -32.507812 20.628906 -32.640625 20.039062 -32.640625 C 19.257812 -32.640625 18.539062 -32.640625 17.820312 -32.378906 C 17.496094 -32.25 17.167969 -32.25 16.84375 -32.183594 C 15.40625 -31.855469 14.035156 -31.59375 12.664062 -31.136719 C 10.574219 -30.550781 8.617188 -29.570312 6.984375 -28.070312 C 6.722656 -27.875 6.460938 -27.613281 6.265625 -27.417969 C 5.15625 -26.375 4.308594 -25.132812 3.65625 -23.761719 C 2.742188 -21.738281 2.285156 -19.648438 1.894531 -17.496094 C 1.828125 -17.300781 1.828125 -17.167969 1.828125 -16.972656 C 1.761719 -14.753906 1.699219 -12.46875 2.285156 -10.25 C 2.414062 -9.398438 2.742188 -8.683594 3.132812 -7.898438 C 3.851562 -6.660156 4.699219 -5.546875 5.746094 -4.570312 C 5.941406 -4.375 6.136719 -4.242188 6.332031 -4.046875 C 7.964844 -2.9375 9.660156 -1.828125 11.488281 -0.980469 C 12.792969 -0.390625 14.164062 0.0664062 15.601562 0.128906 C 16.058594 0.128906 16.582031 0.128906 17.101562 0.195312 Z M 16.710938 -18.929688 C 15.472656 -18.929688 14.230469 -18.929688 12.992188 -18.929688 C 12.664062 -18.929688 12.339844 -18.996094 12.011719 -19.0625 C 11.683594 -19.128906 11.359375 -19.453125 11.359375 -19.78125 C 11.292969 -19.910156 11.292969 -20.105469 11.292969 -20.238281 C 11.292969 -20.5625 11.359375 -20.890625 11.425781 -21.214844 C 11.683594 -22.523438 12.078125 -23.828125 12.535156 -25.066406 C 12.597656 -25.394531 12.792969 -25.65625 12.992188 -25.980469 C 13.382812 -26.570312 13.839844 -27.15625 14.425781 -27.679688 C 14.820312 -28.136719 15.339844 -28.460938 15.863281 -28.65625 C 16.582031 -28.917969 17.234375 -29.179688 18.015625 -29.246094 C 18.539062 -29.246094 18.996094 -29.3125 19.519531 -29.3125 C 20.496094 -29.3125 21.28125 -28.855469 21.804688 -28.003906 C 22.128906 -27.417969 22.390625 -26.832031 22.457031 -26.175781 C 22.523438 -25.917969 22.585938 -25.65625 22.585938 -25.394531 C 22.585938 -24.089844 22.585938 -22.71875 22.523438 -21.410156 C 22.523438 -21.085938 22.457031 -20.757812 22.457031 -20.433594 C 22.324219 -19.386719 21.738281 -19.0625 20.953125 -18.996094 C 20.238281 -18.929688 19.453125 -18.929688 18.734375 -18.929688 C 18.082031 -18.929688 17.363281 -18.929688 16.710938 -18.929688 Z M 16.710938 -18.929688 "/></g></g></g><g fill="rgb(0%, 0%, 0%)" fill-opacity="0.4"><g transform="translate(288.875326, 205.010127)"><g><path d="M 2.742188 -16.320312 C 2.742188 -14.558594 2.742188 -12.792969 2.675781 -11.03125 C 2.546875 -8.03125 2.742188 -5.027344 2.675781 -2.023438 C 2.675781 -1.894531 2.675781 -1.828125 2.675781 -1.761719 C 2.742188 -1.042969 3.132812 -0.523438 3.785156 -0.195312 C 3.980469 -0.0664062 4.242188 0 4.503906 0 C 6.332031 0 8.160156 0 9.988281 0 C 10.183594 0 10.3125 -0.0664062 10.511719 -0.0664062 C 11.03125 -0.128906 11.621094 -0.785156 11.621094 -1.242188 C 11.683594 -1.4375 11.683594 -1.566406 11.683594 -1.761719 C 11.621094 -4.503906 11.75 -7.246094 11.425781 -9.988281 C 11.359375 -10.574219 11.359375 -11.164062 11.359375 -11.75 C 11.292969 -15.210938 11.292969 -18.605469 11.292969 -22.066406 C 11.292969 -22.585938 11.292969 -23.042969 11.359375 -23.566406 C 11.359375 -23.957031 11.488281 -24.347656 11.621094 -24.804688 C 11.75 -25.261719 12.011719 -25.71875 12.402344 -26.046875 C 13.054688 -26.570312 13.773438 -27.027344 14.492188 -27.417969 C 14.621094 -27.484375 14.820312 -27.546875 14.949219 -27.613281 C 15.40625 -27.742188 15.929688 -27.875 16.386719 -28.003906 C 17.558594 -28.265625 18.734375 -28.136719 19.84375 -27.679688 C 20.367188 -27.417969 20.824219 -27.089844 21.214844 -26.570312 C 21.738281 -25.71875 22.195312 -24.804688 22.324219 -23.828125 C 22.390625 -23.304688 22.390625 -22.847656 22.457031 -22.324219 C 22.457031 -21.152344 22.390625 -19.976562 22.390625 -18.800781 C 22.390625 -14.230469 22.324219 -9.597656 22.324219 -5.027344 C 22.261719 -4.375 22.261719 -3.65625 22.324219 -3.003906 C 22.324219 -2.351562 22.585938 -1.699219 22.914062 -1.109375 C 23.042969 -0.914062 23.238281 -0.71875 23.433594 -0.585938 C 23.957031 -0.261719 24.480469 0 25.066406 0 C 26.570312 0 28.070312 0 29.570312 0 C 29.769531 0 29.898438 -0.0664062 30.09375 -0.0664062 C 30.617188 -0.128906 31.136719 -0.71875 31.269531 -1.242188 C 31.398438 -1.828125 31.398438 -2.351562 31.398438 -2.9375 C 31.269531 -7.246094 31.335938 -11.488281 31.335938 -15.734375 C 31.335938 -17.953125 31.335938 -20.105469 31.335938 -22.261719 C 31.335938 -23.957031 31.203125 -25.589844 30.746094 -27.222656 C 30.421875 -28.460938 29.832031 -29.570312 28.855469 -30.421875 C 28.265625 -31.007812 27.546875 -31.464844 26.832031 -31.855469 C 26.046875 -32.183594 25.261719 -32.507812 24.414062 -32.574219 C 23.109375 -32.640625 21.738281 -32.707031 20.433594 -32.3125 C 20.105469 -32.183594 19.78125 -32.117188 19.453125 -32.117188 C 18.605469 -32.117188 17.820312 -31.792969 17.039062 -31.53125 C 16.1875 -31.269531 15.339844 -30.878906 14.558594 -30.355469 C 13.773438 -29.898438 12.992188 -29.375 12.207031 -28.917969 C 12.011719 -28.789062 11.683594 -28.984375 11.621094 -29.179688 C 11.554688 -29.570312 11.621094 -30.027344 11.554688 -30.421875 C 11.554688 -30.679688 11.554688 -30.941406 11.488281 -31.203125 C 11.425781 -31.660156 10.902344 -32.117188 10.511719 -32.183594 C 10.3125 -32.183594 10.183594 -32.25 9.988281 -32.25 C 8.09375 -32.25 6.136719 -32.25 4.242188 -32.25 C 4.046875 -32.25 3.917969 -32.183594 3.722656 -32.183594 C 3.460938 -32.117188 3.265625 -31.988281 3.132812 -31.792969 C 2.9375 -31.464844 2.808594 -31.203125 2.742188 -30.8125 C 2.742188 -30.027344 2.675781 -29.179688 2.675781 -28.332031 C 2.675781 -26.570312 2.742188 -24.804688 2.742188 -23.042969 C 2.742188 -20.824219 2.742188 -18.539062 2.742188 -16.320312 Z M 2.742188 -16.320312 "/></g></g></g><g fill="rgb(0%, 0%, 0%)" fill-opacity="1"><g transform="translate(55.052451, 202.124987)"><g><path d="M 2.742188 -19.386719 C 2.742188 -17.496094 2.742188 -15.734375 2.742188 -13.96875 C 2.808594 -11.425781 2.808594 -8.8125 2.675781 -6.203125 C 2.675781 -4.832031 2.609375 -3.394531 2.609375 -1.957031 C 2.609375 -1.632812 2.609375 -1.304688 2.675781 -0.980469 C 2.675781 -0.523438 3.265625 0 3.722656 0 C 3.851562 0 4.046875 0.0664062 4.179688 0.0664062 C 6.136719 0.0664062 8.03125 0.0664062 9.988281 0.0664062 C 10.117188 0.0664062 10.3125 0 10.445312 0 C 11.359375 -0.0664062 12.011719 -0.914062 12.140625 -1.632812 C 12.140625 -2.089844 12.207031 -2.480469 12.207031 -2.871094 C 12.207031 -3.917969 12.207031 -4.894531 12.207031 -5.875 C 12.207031 -7.246094 12.207031 -8.550781 12.207031 -9.921875 C 12.207031 -10.769531 12.207031 -11.554688 12.402344 -12.402344 C 12.535156 -12.992188 12.535156 -13.578125 12.535156 -14.164062 C 12.597656 -15.078125 12.535156 -15.992188 12.597656 -16.90625 C 12.597656 -17.234375 12.597656 -17.558594 12.664062 -17.886719 C 12.730469 -18.277344 12.925781 -18.539062 13.25 -18.671875 C 13.382812 -18.734375 13.511719 -18.867188 13.707031 -18.867188 C 13.96875 -18.929688 14.230469 -18.929688 14.425781 -18.929688 C 16.515625 -18.996094 16.515625 -18.996094 19.191406 -19.386719 C 20.628906 -19.453125 22 -19.84375 23.371094 -20.039062 C 25.132812 -20.367188 26.765625 -20.953125 28.265625 -21.867188 C 28.917969 -22.324219 29.570312 -22.71875 30.160156 -23.175781 C 31.335938 -24.089844 32.378906 -25.199219 33.097656 -26.503906 C 33.75 -27.679688 34.335938 -28.917969 34.664062 -30.226562 C 34.988281 -31.464844 34.925781 -32.707031 34.859375 -33.945312 C 34.859375 -34.46875 34.859375 -34.988281 34.792969 -35.445312 C 34.597656 -36.882812 34.140625 -38.1875 33.226562 -39.363281 C 32.574219 -40.148438 31.988281 -40.996094 31.269531 -41.648438 C 31.007812 -41.976562 30.679688 -42.234375 30.355469 -42.496094 C 29.570312 -43.019531 28.855469 -43.542969 28.070312 -44.0625 C 27.351562 -44.457031 26.570312 -44.71875 25.785156 -45.042969 C 24.285156 -45.238281 22.847656 -45.628906 21.28125 -45.628906 C 19.714844 -45.566406 18.082031 -45.628906 16.515625 -45.628906 C 12.664062 -45.628906 8.8125 -45.628906 4.960938 -45.628906 C 4.570312 -45.628906 4.179688 -45.628906 3.722656 -45.5 C 3.589844 -45.5 3.199219 -45.238281 3.199219 -45.042969 C 3.132812 -44.914062 3.066406 -44.71875 3.066406 -44.585938 C 2.742188 -42.300781 2.675781 -40.082031 2.871094 -37.796875 C 3.003906 -36.558594 3.066406 -35.316406 3.066406 -34.074219 C 3.066406 -32.835938 3.066406 -31.53125 3.003906 -30.289062 C 2.9375 -29.703125 2.9375 -29.113281 2.9375 -28.527344 C 2.871094 -25.460938 3.066406 -22.324219 2.742188 -19.386719 Z M 16.386719 -42.691406 C 16.644531 -42.691406 16.90625 -42.691406 17.167969 -42.691406 C 18.410156 -42.757812 19.648438 -42.496094 20.824219 -42.105469 C 21.738281 -41.777344 22.457031 -41.191406 23.042969 -40.472656 C 23.695312 -39.753906 24.21875 -38.839844 24.609375 -37.925781 C 24.9375 -37.210938 25.261719 -36.425781 25.261719 -35.578125 C 25.261719 -35.382812 25.328125 -35.25 25.328125 -35.054688 C 25.589844 -33.816406 25.523438 -32.574219 25.328125 -31.335938 C 25.261719 -30.550781 25.066406 -29.898438 24.742188 -29.179688 C 24.023438 -27.484375 23.109375 -25.917969 22 -24.414062 C 21.609375 -23.890625 21.152344 -23.433594 20.5625 -23.042969 C 20.367188 -22.914062 20.171875 -22.78125 19.910156 -22.652344 C 18.734375 -21.804688 17.429688 -21.347656 15.992188 -21.152344 C 15.144531 -21.085938 14.296875 -21.019531 13.511719 -21.019531 C 13.121094 -20.953125 12.664062 -21.347656 12.664062 -21.738281 C 12.664062 -21.867188 12.597656 -21.933594 12.597656 -22 C 12.597656 -22.261719 12.597656 -22.523438 12.597656 -22.78125 C 12.535156 -28.59375 12.535156 -34.46875 12.664062 -40.277344 C 12.664062 -40.667969 12.664062 -41.125 12.730469 -41.519531 C 12.730469 -41.714844 12.792969 -41.84375 12.925781 -41.976562 C 13.054688 -42.300781 13.316406 -42.496094 13.644531 -42.5625 C 14.101562 -42.628906 14.492188 -42.691406 14.882812 -42.691406 C 15.40625 -42.757812 15.929688 -42.691406 16.386719 -42.691406 Z M 16.386719 -42.691406 "/></g></g></g><g fill="rgb(0%, 0%, 0%)" fill-opacity="1"><g transform="translate(90.561246, 202.124987)"><g><path d="M 27.808594 -18.867188 C 27.808594 -19.648438 27.742188 -20.238281 27.808594 -20.824219 C 27.808594 -21.738281 27.742188 -22.652344 27.546875 -23.566406 C 27.417969 -23.890625 27.417969 -24.21875 27.351562 -24.546875 C 27.15625 -25.65625 26.699219 -26.632812 26.046875 -27.484375 C 25.261719 -28.527344 24.347656 -29.375 23.371094 -30.160156 C 22.71875 -30.679688 22.066406 -31.136719 21.214844 -31.464844 C 20.5625 -31.726562 19.84375 -31.988281 19.128906 -32.3125 C 18.605469 -32.507812 18.015625 -32.640625 17.429688 -32.640625 C 16.84375 -32.640625 16.253906 -32.640625 15.667969 -32.640625 C 15.078125 -32.640625 14.558594 -32.507812 13.96875 -32.378906 C 12.078125 -31.988281 10.3125 -31.203125 8.488281 -30.550781 C 7.703125 -30.226562 7.050781 -29.769531 6.398438 -29.179688 C 5.484375 -28.332031 4.699219 -27.351562 4.113281 -26.242188 C 3.980469 -25.917969 3.851562 -25.589844 3.722656 -25.328125 C 3.65625 -25.132812 3.65625 -25.003906 3.589844 -24.804688 C 3.589844 -24.546875 3.65625 -24.347656 3.785156 -24.089844 C 3.917969 -23.828125 4.308594 -23.695312 4.636719 -23.761719 C 4.894531 -23.828125 5.09375 -23.957031 5.222656 -24.152344 C 5.679688 -24.675781 5.941406 -25.328125 6.265625 -25.917969 C 6.722656 -26.632812 7.246094 -27.222656 7.898438 -27.742188 C 8.289062 -28.070312 8.683594 -28.398438 9.140625 -28.65625 C 9.597656 -28.984375 10.183594 -29.179688 10.769531 -29.246094 C 11.359375 -29.3125 11.945312 -29.441406 12.535156 -29.441406 C 14.230469 -29.636719 15.601562 -28.917969 16.710938 -27.679688 C 16.90625 -27.417969 17.101562 -27.089844 17.167969 -26.765625 C 17.558594 -25.65625 17.886719 -24.546875 17.886719 -23.371094 C 17.820312 -22.78125 17.953125 -22.195312 18.015625 -21.609375 C 18.148438 -20.433594 18.015625 -19.257812 17.757812 -18.148438 C 17.757812 -17.886719 17.300781 -17.558594 17.039062 -17.496094 C 16.777344 -17.496094 16.515625 -17.496094 16.320312 -17.496094 C 15.535156 -17.558594 14.753906 -17.496094 14.035156 -17.429688 C 13.382812 -17.300781 12.730469 -17.234375 12.078125 -17.101562 C 11.683594 -17.101562 11.359375 -17.039062 11.03125 -16.972656 C 9.855469 -16.582031 8.683594 -16.1875 7.574219 -15.601562 C 6.003906 -14.820312 4.765625 -13.773438 3.722656 -12.46875 C 3.328125 -11.945312 2.9375 -11.359375 2.675781 -10.707031 C 2.21875 -9.597656 1.894531 -8.355469 1.828125 -7.117188 C 1.699219 -5.351562 2.152344 -3.785156 3.199219 -2.351562 C 3.589844 -1.828125 4.113281 -1.371094 4.699219 -1.042969 C 5.808594 -0.457031 6.984375 -0.0664062 8.289062 -0.0664062 C 8.945312 -0.0664062 9.597656 -0.0664062 10.25 -0.0664062 C 10.511719 -0.0664062 10.769531 -0.0664062 11.03125 -0.128906 C 12.664062 -0.523438 14.296875 -0.914062 15.734375 -1.761719 C 16.449219 -2.21875 17.234375 -2.546875 17.953125 -2.9375 C 18.214844 -3.066406 18.671875 -3.003906 18.867188 -2.742188 C 19.0625 -2.546875 19.191406 -2.414062 19.386719 -2.21875 C 19.585938 -1.957031 19.84375 -1.699219 20.039062 -1.5 C 20.628906 -0.914062 21.347656 -0.652344 22.128906 -0.585938 C 22.914062 -0.585938 23.761719 -0.585938 24.609375 -0.585938 C 25.132812 -0.585938 25.589844 -0.785156 25.980469 -1.109375 C 26.242188 -1.371094 26.4375 -1.632812 26.632812 -1.894531 C 27.089844 -2.675781 27.351562 -3.589844 27.351562 -4.503906 C 27.351562 -5.09375 27.351562 -5.679688 27.351562 -6.265625 C 27.417969 -7.898438 27.351562 -9.464844 27.417969 -11.03125 C 27.417969 -12.402344 27.417969 -13.707031 27.613281 -15.078125 C 27.742188 -16.386719 27.808594 -17.757812 27.808594 -18.867188 Z M 18.34375 -8.878906 C 18.277344 -8.550781 18.277344 -8.226562 18.214844 -7.898438 C 18.214844 -7.574219 18.015625 -7.3125 17.757812 -7.050781 C 17.496094 -6.855469 17.234375 -6.660156 16.90625 -6.59375 C 15.601562 -6.203125 14.296875 -6.070312 12.992188 -6.003906 C 12.273438 -5.941406 11.683594 -6.070312 11.03125 -6.398438 C 10.183594 -6.855469 9.660156 -7.574219 9.269531 -8.421875 C 9.203125 -8.683594 9.140625 -8.945312 9.074219 -9.140625 C 8.746094 -10.183594 8.8125 -11.097656 9.269531 -12.078125 C 9.597656 -12.792969 10.054688 -13.316406 10.769531 -13.644531 C 11.683594 -13.96875 12.664062 -14.164062 13.644531 -14.425781 C 13.707031 -14.425781 13.839844 -14.425781 13.90625 -14.425781 C 15.078125 -14.492188 16.253906 -14.492188 17.363281 -14.101562 C 17.625 -14.035156 17.757812 -13.839844 17.820312 -13.644531 C 17.886719 -13.511719 17.886719 -13.449219 17.953125 -13.382812 C 18.015625 -12.207031 18.082031 -11.03125 18.277344 -9.921875 C 18.277344 -9.597656 18.277344 -9.269531 18.34375 -8.878906 Z M 18.34375 -8.878906 "/></g></g></g><g fill="rgb(0%, 0%, 0%)" fill-opacity="1"><g transform="translate(120.652339, 202.124987)"><g><path d="M 21.738281 -3.785156 C 21.804688 -3.65625 21.867188 -3.589844 21.933594 -3.523438 C 21.933594 -3.328125 22 -3.199219 22.066406 -3.003906 C 22.066406 -2.546875 22.066406 -2.023438 22.066406 -1.5 C 22.128906 -1.304688 22.195312 -1.042969 22.261719 -0.785156 C 22.390625 -0.390625 22.652344 -0.0664062 23.109375 0 C 23.5 0.0664062 23.957031 0.128906 24.347656 0.128906 C 25.851562 0.195312 27.351562 0.195312 28.855469 0.128906 C 29.113281 0.128906 29.375 0.128906 29.636719 0.128906 C 29.898438 0.0664062 30.09375 0 30.355469 -0.0664062 C 30.679688 -0.195312 30.878906 -0.457031 30.941406 -0.785156 C 31.007812 -0.980469 31.007812 -1.175781 31.007812 -1.304688 C 31.074219 -2.480469 31.136719 -3.65625 31.136719 -4.832031 C 31.074219 -7.3125 31.074219 -9.855469 31.007812 -12.339844 C 30.941406 -15.277344 31.007812 -18.214844 31.074219 -21.152344 C 31.074219 -24.023438 31.074219 -26.832031 31.074219 -29.703125 C 31.074219 -30.09375 31.007812 -30.550781 30.941406 -30.941406 C 30.8125 -31.53125 30.484375 -31.988281 29.898438 -32.25 C 29.507812 -32.445312 29.113281 -32.574219 28.65625 -32.574219 C 27.222656 -32.574219 25.851562 -32.574219 24.414062 -32.574219 C 24.21875 -32.574219 24.089844 -32.507812 23.890625 -32.507812 C 23.566406 -32.445312 23.042969 -31.988281 22.980469 -31.726562 C 22.78125 -30.355469 22.585938 -29.050781 22.585938 -27.679688 C 22.585938 -24.285156 22.585938 -20.824219 22.523438 -17.429688 C 22.523438 -16.386719 22.523438 -15.40625 22.457031 -14.425781 C 22.324219 -12.792969 22.324219 -11.226562 22.261719 -9.660156 C 22.261719 -9.203125 22.324219 -8.8125 22.261719 -8.355469 C 22.195312 -8.03125 22.128906 -7.703125 22 -7.375 C 21.933594 -7.179688 21.804688 -6.984375 21.609375 -6.789062 C 20.757812 -6.070312 19.84375 -5.484375 18.867188 -5.027344 C 18.472656 -4.832031 18.082031 -4.699219 17.691406 -4.570312 C 16.582031 -4.308594 15.40625 -4.242188 14.230469 -4.308594 C 13.707031 -4.375 13.1875 -4.503906 12.730469 -4.636719 C 12.011719 -4.960938 11.488281 -5.417969 11.359375 -6.265625 C 11.226562 -7.050781 11.226562 -7.769531 11.226562 -8.550781 C 11.226562 -11.683594 11.164062 -14.882812 11.226562 -18.082031 C 11.226562 -21.152344 11.226562 -24.285156 11.359375 -27.351562 C 11.425781 -28.265625 11.359375 -29.179688 11.292969 -30.09375 C 11.292969 -30.617188 11.097656 -31.074219 10.902344 -31.53125 C 10.769531 -31.792969 10.574219 -31.988281 10.378906 -32.117188 C 9.921875 -32.378906 9.464844 -32.574219 8.945312 -32.574219 C 7.507812 -32.574219 6.136719 -32.574219 4.699219 -32.574219 C 4.503906 -32.574219 4.375 -32.574219 4.179688 -32.574219 C 3.851562 -32.507812 3.589844 -32.3125 3.394531 -31.988281 C 3.132812 -31.660156 2.9375 -31.269531 2.9375 -30.878906 C 2.9375 -28.398438 2.871094 -25.980469 2.742188 -23.566406 C 2.742188 -23.433594 2.742188 -23.238281 2.742188 -23.042969 C 2.675781 -21.152344 2.742188 -19.191406 2.609375 -17.300781 C 2.480469 -13.773438 2.609375 -10.25 2.480469 -6.722656 C 2.480469 -6.003906 2.609375 -5.289062 2.871094 -4.503906 C 2.9375 -4.179688 3.132812 -3.917969 3.328125 -3.65625 C 4.242188 -2.609375 5.15625 -1.699219 6.265625 -0.914062 C 7.050781 -0.390625 7.832031 0 8.8125 0.128906 C 9.464844 0.195312 10.054688 0.457031 10.769531 0.523438 C 11.75 0.523438 12.792969 0.585938 13.773438 0.585938 C 14.363281 0.585938 14.949219 0.457031 15.472656 0.195312 C 16.1875 -0.0664062 16.84375 -0.390625 17.496094 -0.785156 C 18.148438 -1.175781 18.734375 -1.566406 19.324219 -2.089844 C 19.910156 -2.546875 20.496094 -3.066406 21.085938 -3.523438 C 21.28125 -3.65625 21.542969 -3.65625 21.738281 -3.785156 Z M 21.738281 -3.785156 "/></g></g></g><g fill="rgb(0%, 0%, 0%)" fill-opacity="1"><g transform="translate(154.398743, 202.124987)"><g><path d="M 2.675781 -21.867188 C 2.742188 -21.867188 2.742188 -21.867188 2.742188 -21.867188 C 2.742188 -18.34375 2.742188 -14.820312 2.675781 -11.292969 C 2.675781 -10.707031 2.675781 -10.183594 2.609375 -9.597656 C 2.546875 -8.160156 2.480469 -6.722656 2.414062 -5.289062 C 2.414062 -5.09375 2.414062 -4.832031 2.414062 -4.570312 C 2.480469 -3.589844 2.546875 -2.546875 2.609375 -1.566406 C 2.609375 -1.304688 2.675781 -1.042969 2.742188 -0.847656 C 2.871094 -0.390625 3.394531 0 3.917969 0.0664062 C 4.046875 0.0664062 4.242188 0.0664062 4.375 0.0664062 C 6.070312 0.0664062 7.703125 0.0664062 9.398438 0.0664062 C 9.660156 0.0664062 9.921875 0 10.117188 -0.0664062 C 10.511719 -0.0664062 10.769531 -0.195312 11.097656 -0.390625 C 11.425781 -0.652344 11.683594 -0.980469 11.75 -1.371094 C 11.816406 -1.566406 11.816406 -1.699219 11.816406 -1.894531 C 11.945312 -3.066406 12.011719 -4.242188 12.078125 -5.417969 C 12.078125 -6.722656 12.207031 -8.09375 11.882812 -9.398438 C 11.75 -9.792969 11.75 -10.183594 11.75 -10.640625 C 11.75 -11.292969 11.75 -11.945312 11.75 -12.664062 C 11.75 -22.195312 11.816406 -31.726562 11.816406 -41.257812 C 11.816406 -42.039062 11.816406 -42.890625 11.75 -43.738281 C 11.75 -44 11.75 -44.261719 11.683594 -44.457031 C 11.621094 -44.847656 11.359375 -45.109375 11.03125 -45.238281 C 10.769531 -45.304688 10.445312 -45.433594 10.117188 -45.433594 C 8.421875 -45.5 6.789062 -45.5 5.09375 -45.5 C 4.699219 -45.5 4.242188 -45.304688 3.917969 -45.109375 C 3.589844 -44.914062 3.394531 -44.71875 3.265625 -44.390625 C 2.9375 -43.347656 2.742188 -42.234375 2.742188 -41.191406 C 2.742188 -39.886719 2.675781 -38.644531 2.675781 -37.40625 C 2.675781 -32.25 2.675781 -27.027344 2.675781 -21.867188 Z M 2.675781 -21.867188 "/></g></g></g><g fill="rgb(0%, 0%, 0%)" fill-opacity="1"><g transform="translate(168.889469, 202.124987)"><g/></g></g><g fill="rgb(0%, 0%, 0%)" fill-opacity="1"><g transform="translate(181.878901, 202.124987)"><g><path d="M 22.128906 -14.425781 C 23.304688 -14.425781 24.480469 -14.425781 25.65625 -14.425781 C 25.917969 -14.425781 26.175781 -14.425781 26.4375 -14.363281 C 26.570312 -14.296875 26.699219 -14.230469 26.832031 -14.101562 C 27.15625 -13.839844 27.417969 -13.511719 27.546875 -13.121094 C 27.941406 -12.078125 28.332031 -11.097656 28.722656 -10.054688 C 28.855469 -9.726562 28.984375 -9.464844 29.050781 -9.140625 C 29.570312 -6.660156 30.550781 -4.308594 31.203125 -1.894531 C 31.335938 -1.566406 31.464844 -1.304688 31.59375 -0.980469 C 31.855469 -0.457031 32.25 -0.261719 32.769531 -0.128906 C 33.097656 0 33.421875 0 33.75 0 C 35.902344 0 38.125 -0.0664062 40.277344 -0.128906 C 40.539062 -0.128906 40.800781 -0.195312 40.996094 -0.261719 C 41.386719 -0.390625 41.648438 -0.980469 41.519531 -1.304688 C 41.320312 -1.828125 41.125 -2.414062 40.929688 -2.9375 C 40.210938 -4.636719 39.558594 -6.332031 38.972656 -8.09375 C 38.777344 -8.683594 38.644531 -9.203125 38.449219 -9.792969 C 37.40625 -12.402344 36.425781 -15.078125 35.121094 -17.625 C 34.792969 -18.277344 34.46875 -18.996094 34.207031 -19.714844 C 33.621094 -21.28125 33.03125 -22.847656 32.574219 -24.414062 C 32.050781 -26.242188 31.464844 -28.136719 30.679688 -29.898438 C 29.507812 -32.574219 28.527344 -35.316406 27.546875 -38.058594 C 26.960938 -39.820312 26.175781 -41.519531 25.460938 -43.148438 C 25.261719 -43.542969 25.066406 -43.933594 24.804688 -44.261719 C 24.546875 -44.71875 24.152344 -45.042969 23.632812 -45.109375 C 21.28125 -45.628906 18.800781 -45.695312 16.386719 -45.628906 C 16.253906 -45.628906 16.058594 -45.566406 15.929688 -45.566406 C 15.734375 -45.5 15.601562 -45.371094 15.472656 -45.304688 C 15.210938 -45.109375 15.015625 -44.847656 14.882812 -44.519531 C 14.363281 -43.542969 14.035156 -42.496094 13.578125 -41.519531 C 13.1875 -39.691406 12.535156 -37.992188 12.140625 -36.164062 C 11.816406 -34.597656 11.359375 -33.097656 10.835938 -31.59375 C 10.378906 -30.355469 9.988281 -29.050781 9.660156 -27.808594 C 9.464844 -27.089844 9.269531 -26.308594 9.007812 -25.589844 C 8.683594 -24.742188 8.550781 -23.828125 8.289062 -22.980469 C 8.03125 -22 7.703125 -21.019531 7.441406 -20.105469 C 7.3125 -19.585938 7.117188 -19.128906 6.984375 -18.671875 C 6.660156 -17.234375 6.203125 -15.929688 5.746094 -14.558594 C 4.960938 -12.078125 4.179688 -9.660156 3.328125 -7.179688 C 2.675781 -5.222656 2.089844 -3.199219 1.371094 -1.242188 C 1.304688 -1.042969 1.304688 -0.914062 1.304688 -0.71875 C 1.304688 -0.652344 1.304688 -0.585938 1.371094 -0.523438 C 1.5 -0.261719 1.632812 -0.128906 1.894531 -0.0664062 C 2.414062 0.0664062 2.9375 0 3.394531 0 C 4.308594 0.0664062 4.832031 -0.390625 5.15625 -1.175781 C 5.222656 -1.304688 5.351562 -1.4375 5.351562 -1.632812 C 5.808594 -3.199219 6.398438 -4.765625 6.789062 -6.398438 C 6.917969 -6.984375 7.050781 -7.574219 7.246094 -8.09375 C 7.574219 -9.660156 8.160156 -11.164062 8.617188 -12.664062 C 8.945312 -13.578125 9.660156 -13.839844 10.378906 -13.90625 C 10.902344 -13.90625 11.359375 -13.90625 11.882812 -13.90625 C 12.792969 -13.90625 13.707031 -13.96875 14.621094 -13.96875 C 15.210938 -14.035156 15.796875 -14.035156 16.386719 -14.164062 C 17.496094 -14.363281 18.539062 -14.425781 19.648438 -14.425781 C 20.496094 -14.425781 21.28125 -14.425781 22.128906 -14.425781 Z M 16.320312 -16.386719 C 14.753906 -16.386719 13.121094 -16.386719 11.554688 -16.386719 C 11.226562 -16.386719 10.902344 -16.449219 10.574219 -16.515625 C 10.3125 -16.515625 9.988281 -16.972656 10.054688 -17.234375 C 10.183594 -17.496094 10.183594 -17.757812 10.3125 -17.953125 C 10.769531 -19.257812 11.097656 -20.496094 11.425781 -21.804688 C 12.46875 -25.523438 12.339844 -25.328125 13.511719 -28.722656 C 14.558594 -31.726562 15.535156 -34.792969 16.515625 -37.796875 C 16.582031 -37.925781 16.644531 -38.058594 16.710938 -38.253906 C 16.777344 -38.253906 16.84375 -38.320312 16.90625 -38.382812 C 17.039062 -38.449219 17.234375 -38.382812 17.300781 -38.253906 C 17.625 -37.925781 17.757812 -37.472656 17.886719 -37.144531 C 18.148438 -36.425781 18.34375 -35.707031 18.539062 -34.988281 C 18.929688 -33.683594 19.386719 -32.445312 19.976562 -31.203125 C 21.152344 -28.65625 22.324219 -26.046875 23.433594 -23.5 C 23.566406 -23.238281 23.632812 -22.980469 23.761719 -22.78125 C 24.285156 -21.152344 24.871094 -19.453125 25.523438 -17.820312 C 25.589844 -17.757812 25.589844 -17.691406 25.589844 -17.625 C 25.65625 -17.300781 25.394531 -16.90625 25.066406 -16.90625 C 22.980469 -16.710938 20.890625 -16.582031 18.800781 -16.386719 C 18.015625 -16.386719 17.167969 -16.386719 16.320312 -16.386719 Z M 16.320312 -16.386719 "/></g></g></g><g fill="rgb(0%, 0%, 0%)" fill-opacity="1"><g transform="translate(224.567787, 202.124987)"><g><path d="M 2.675781 -21.867188 C 2.742188 -21.867188 2.742188 -21.867188 2.742188 -21.867188 C 2.742188 -18.34375 2.742188 -14.820312 2.675781 -11.292969 C 2.675781 -10.707031 2.675781 -10.183594 2.609375 -9.597656 C 2.546875 -8.160156 2.480469 -6.722656 2.414062 -5.289062 C 2.414062 -5.09375 2.414062 -4.832031 2.414062 -4.570312 C 2.480469 -3.589844 2.546875 -2.546875 2.609375 -1.566406 C 2.609375 -1.304688 2.675781 -1.042969 2.742188 -0.847656 C 2.871094 -0.390625 3.394531 0 3.917969 0.0664062 C 4.046875 0.0664062 4.242188 0.0664062 4.375 0.0664062 C 6.070312 0.0664062 7.703125 0.0664062 9.398438 0.0664062 C 9.660156 0.0664062 9.921875 0 10.117188 -0.0664062 C 10.511719 -0.0664062 10.769531 -0.195312 11.097656 -0.390625 C 11.425781 -0.652344 11.683594 -0.980469 11.75 -1.371094 C 11.816406 -1.566406 11.816406 -1.699219 11.816406 -1.894531 C 11.945312 -3.066406 12.011719 -4.242188 12.078125 -5.417969 C 12.078125 -6.722656 12.207031 -8.09375 11.882812 -9.398438 C 11.75 -9.792969 11.75 -10.183594 11.75 -10.640625 C 11.75 -11.292969 11.75 -11.945312 11.75 -12.664062 C 11.75 -22.195312 11.816406 -31.726562 11.816406 -41.257812 C 11.816406 -42.039062 11.816406 -42.890625 11.75 -43.738281 C 11.75 -44 11.75 -44.261719 11.683594 -44.457031 C 11.621094 -44.847656 11.359375 -45.109375 11.03125 -45.238281 C 10.769531 -45.304688 10.445312 -45.433594 10.117188 -45.433594 C 8.421875 -45.5 6.789062 -45.5 5.09375 -45.5 C 4.699219 -45.5 4.242188 -45.304688 3.917969 -45.109375 C 3.589844 -44.914062 3.394531 -44.71875 3.265625 -44.390625 C 2.9375 -43.347656 2.742188 -42.234375 2.742188 -41.191406 C 2.742188 -39.886719 2.675781 -38.644531 2.675781 -37.40625 C 2.675781 -32.25 2.675781 -27.027344 2.675781 -21.867188 Z M 2.675781 -21.867188 "/></g></g></g><g fill="rgb(0%, 0%, 0%)" fill-opacity="1"><g transform="translate(239.058513, 202.124987)"><g><path d="M 2.675781 -21.867188 C 2.742188 -21.867188 2.742188 -21.867188 2.742188 -21.867188 C 2.742188 -18.34375 2.742188 -14.820312 2.675781 -11.292969 C 2.675781 -10.707031 2.675781 -10.183594 2.609375 -9.597656 C 2.546875 -8.160156 2.480469 -6.722656 2.414062 -5.289062 C 2.414062 -5.09375 2.414062 -4.832031 2.414062 -4.570312 C 2.480469 -3.589844 2.546875 -2.546875 2.609375 -1.566406 C 2.609375 -1.304688 2.675781 -1.042969 2.742188 -0.847656 C 2.871094 -0.390625 3.394531 0 3.917969 0.0664062 C 4.046875 0.0664062 4.242188 0.0664062 4.375 0.0664062 C 6.070312 0.0664062 7.703125 0.0664062 9.398438 0.0664062 C 9.660156 0.0664062 9.921875 0 10.117188 -0.0664062 C 10.511719 -0.0664062 10.769531 -0.195312 11.097656 -0.390625 C 11.425781 -0.652344 11.683594 -0.980469 11.75 -1.371094 C 11.816406 -1.566406 11.816406 -1.699219 11.816406 -1.894531 C 11.945312 -3.066406 12.011719 -4.242188 12.078125 -5.417969 C 12.078125 -6.722656 12.207031 -8.09375 11.882812 -9.398438 C 11.75 -9.792969 11.75 -10.183594 11.75 -10.640625 C 11.75 -11.292969 11.75 -11.945312 11.75 -12.664062 C 11.75 -22.195312 11.816406 -31.726562 11.816406 -41.257812 C 11.816406 -42.039062 11.816406 -42.890625 11.75 -43.738281 C 11.75 -44 11.75 -44.261719 11.683594 -44.457031 C 11.621094 -44.847656 11.359375 -45.109375 11.03125 -45.238281 C 10.769531 -45.304688 10.445312 -45.433594 10.117188 -45.433594 C 8.421875 -45.5 6.789062 -45.5 5.09375 -45.5 C 4.699219 -45.5 4.242188 -45.304688 3.917969 -45.109375 C 3.589844 -44.914062 3.394531 -44.71875 3.265625 -44.390625 C 2.9375 -43.347656 2.742188 -42.234375 2.742188 -41.191406 C 2.742188 -39.886719 2.675781 -38.644531 2.675781 -37.40625 C 2.675781 -32.25 2.675781 -27.027344 2.675781 -21.867188 Z M 2.675781 -21.867188 "/></g></g></g><g fill="rgb(0%, 0%, 0%)" fill-opacity="1"><g transform="translate(253.54925, 202.124987)"><g><path d="M 17.101562 0.195312 C 17.558594 0.195312 18.082031 0.261719 18.605469 0.261719 C 20.039062 0.261719 21.410156 0.0664062 22.78125 -0.457031 C 24.546875 -1.175781 26.242188 -2.023438 27.875 -3.066406 C 28.136719 -3.199219 28.332031 -3.394531 28.527344 -3.523438 C 28.855469 -3.785156 28.984375 -4.179688 29.050781 -4.636719 C 29.113281 -5.222656 28.59375 -5.746094 28.003906 -5.679688 C 27.546875 -5.613281 27.15625 -5.613281 26.765625 -5.417969 C 25.980469 -5.09375 25.132812 -4.960938 24.347656 -4.699219 C 23.433594 -4.4375 22.523438 -4.375 21.609375 -4.4375 C 20.757812 -4.503906 19.976562 -4.765625 19.191406 -5.027344 C 17.886719 -5.417969 16.710938 -6.070312 15.734375 -7.050781 C 14.558594 -8.09375 13.644531 -9.398438 12.792969 -10.707031 C 12.664062 -10.902344 12.597656 -11.03125 12.535156 -11.164062 C 12.011719 -12.597656 11.425781 -13.96875 11.097656 -15.472656 C 11.097656 -15.667969 11.425781 -16.1875 11.621094 -16.253906 C 11.816406 -16.320312 11.945312 -16.386719 12.078125 -16.449219 C 13.25 -16.644531 14.425781 -16.710938 15.601562 -16.710938 C 17.363281 -16.710938 19.128906 -16.710938 20.890625 -16.710938 C 23.5 -16.710938 26.046875 -16.84375 28.65625 -16.972656 C 28.917969 -16.972656 29.179688 -17.039062 29.375 -17.101562 C 29.769531 -17.167969 30.027344 -17.363281 30.160156 -17.625 C 30.355469 -17.953125 30.484375 -18.277344 30.550781 -18.605469 C 30.679688 -19.648438 30.550781 -20.757812 30.289062 -21.804688 C 30.160156 -22.390625 30.027344 -22.980469 29.898438 -23.5 C 29.636719 -24.546875 29.441406 -25.65625 29.050781 -26.699219 C 28.722656 -27.679688 28.136719 -28.460938 27.351562 -29.113281 C 25.71875 -30.550781 23.890625 -31.726562 21.738281 -32.3125 C 21.152344 -32.507812 20.628906 -32.640625 20.039062 -32.640625 C 19.257812 -32.640625 18.539062 -32.640625 17.820312 -32.378906 C 17.496094 -32.25 17.167969 -32.25 16.84375 -32.183594 C 15.40625 -31.855469 14.035156 -31.59375 12.664062 -31.136719 C 10.574219 -30.550781 8.617188 -29.570312 6.984375 -28.070312 C 6.722656 -27.875 6.460938 -27.613281 6.265625 -27.417969 C 5.15625 -26.375 4.308594 -25.132812 3.65625 -23.761719 C 2.742188 -21.738281 2.285156 -19.648438 1.894531 -17.496094 C 1.828125 -17.300781 1.828125 -17.167969 1.828125 -16.972656 C 1.761719 -14.753906 1.699219 -12.46875 2.285156 -10.25 C 2.414062 -9.398438 2.742188 -8.683594 3.132812 -7.898438 C 3.851562 -6.660156 4.699219 -5.546875 5.746094 -4.570312 C 5.941406 -4.375 6.136719 -4.242188 6.332031 -4.046875 C 7.964844 -2.9375 9.660156 -1.828125 11.488281 -0.980469 C 12.792969 -0.390625 14.164062 0.0664062 15.601562 0.128906 C 16.058594 0.128906 16.582031 0.128906 17.101562 0.195312 Z M 16.710938 -18.929688 C 15.472656 -18.929688 14.230469 -18.929688 12.992188 -18.929688 C 12.664062 -18.929688 12.339844 -18.996094 12.011719 -19.0625 C 11.683594 -19.128906 11.359375 -19.453125 11.359375 -19.78125 C 11.292969 -19.910156 11.292969 -20.105469 11.292969 -20.238281 C 11.292969 -20.5625 11.359375 -20.890625 11.425781 -21.214844 C 11.683594 -22.523438 12.078125 -23.828125 12.535156 -25.066406 C 12.597656 -25.394531 12.792969 -25.65625 12.992188 -25.980469 C 13.382812 -26.570312 13.839844 -27.15625 14.425781 -27.679688 C 14.820312 -28.136719 15.339844 -28.460938 15.863281 -28.65625 C 16.582031 -28.917969 17.234375 -29.179688 18.015625 -29.246094 C 18.539062 -29.246094 18.996094 -29.3125 19.519531 -29.3125 C 20.496094 -29.3125 21.28125 -28.855469 21.804688 -28.003906 C 22.128906 -27.417969 22.390625 -26.832031 22.457031 -26.175781 C 22.523438 -25.917969 22.585938 -25.65625 22.585938 -25.394531 C 22.585938 -24.089844 22.585938 -22.71875 22.523438 -21.410156 C 22.523438 -21.085938 22.457031 -20.757812 22.457031 -20.433594 C 22.324219 -19.386719 21.738281 -19.0625 20.953125 -18.996094 C 20.238281 -18.929688 19.453125 -18.929688 18.734375 -18.929688 C 18.082031 -18.929688 17.363281 -18.929688 16.710938 -18.929688 Z M 16.710938 -18.929688 "/></g></g></g><g fill="rgb(0%, 0%, 0%)" fill-opacity="1"><g transform="translate(285.990181, 202.124987)"><g><path d="M 2.742188 -16.320312 C 2.742188 -14.558594 2.742188 -12.792969 2.675781 -11.03125 C 2.546875 -8.03125 2.742188 -5.027344 2.675781 -2.023438 C 2.675781 -1.894531 2.675781 -1.828125 2.675781 -1.761719 C 2.742188 -1.042969 3.132812 -0.523438 3.785156 -0.195312 C 3.980469 -0.0664062 4.242188 0 4.503906 0 C 6.332031 0 8.160156 0 9.988281 0 C 10.183594 0 10.3125 -0.0664062 10.511719 -0.0664062 C 11.03125 -0.128906 11.621094 -0.785156 11.621094 -1.242188 C 11.683594 -1.4375 11.683594 -1.566406 11.683594 -1.761719 C 11.621094 -4.503906 11.75 -7.246094 11.425781 -9.988281 C 11.359375 -10.574219 11.359375 -11.164062 11.359375 -11.75 C 11.292969 -15.210938 11.292969 -18.605469 11.292969 -22.066406 C 11.292969 -22.585938 11.292969 -23.042969 11.359375 -23.566406 C 11.359375 -23.957031 11.488281 -24.347656 11.621094 -24.804688 C 11.75 -25.261719 12.011719 -25.71875 12.402344 -26.046875 C 13.054688 -26.570312 13.773438 -27.027344 14.492188 -27.417969 C 14.621094 -27.484375 14.820312 -27.546875 14.949219 -27.613281 C 15.40625 -27.742188 15.929688 -27.875 16.386719 -28.003906 C 17.558594 -28.265625 18.734375 -28.136719 19.84375 -27.679688 C 20.367188 -27.417969 20.824219 -27.089844 21.214844 -26.570312 C 21.738281 -25.71875 22.195312 -24.804688 22.324219 -23.828125 C 22.390625 -23.304688 22.390625 -22.847656 22.457031 -22.324219 C 22.457031 -21.152344 22.390625 -19.976562 22.390625 -18.800781 C 22.390625 -14.230469 22.324219 -9.597656 22.324219 -5.027344 C 22.261719 -4.375 22.261719 -3.65625 22.324219 -3.003906 C 22.324219 -2.351562 22.585938 -1.699219 22.914062 -1.109375 C 23.042969 -0.914062 23.238281 -0.71875 23.433594 -0.585938 C 23.957031 -0.261719 24.480469 0 25.066406 0 C 26.570312 0 28.070312 0 29.570312 0 C 29.769531 0 29.898438 -0.0664062 30.09375 -0.0664062 C 30.617188 -0.128906 31.136719 -0.71875 31.269531 -1.242188 C 31.398438 -1.828125 31.398438 -2.351562 31.398438 -2.9375 C 31.269531 -7.246094 31.335938 -11.488281 31.335938 -15.734375 C 31.335938 -17.953125 31.335938 -20.105469 31.335938 -22.261719 C 31.335938 -23.957031 31.203125 -25.589844 30.746094 -27.222656 C 30.421875 -28.460938 29.832031 -29.570312 28.855469 -30.421875 C 28.265625 -31.007812 27.546875 -31.464844 26.832031 -31.855469 C 26.046875 -32.183594 25.261719 -32.507812 24.414062 -32.574219 C 23.109375 -32.640625 21.738281 -32.707031 20.433594 -32.3125 C 20.105469 -32.183594 19.78125 -32.117188 19.453125 -32.117188 C 18.605469 -32.117188 17.820312 -31.792969 17.039062 -31.53125 C 16.1875 -31.269531 15.339844 -30.878906 14.558594 -30.355469 C 13.773438 -29.898438 12.992188 -29.375 12.207031 -28.917969 C 12.011719 -28.789062 11.683594 -28.984375 11.621094 -29.179688 C 11.554688 -29.570312 11.621094 -30.027344 11.554688 -30.421875 C 11.554688 -30.679688 11.554688 -30.941406 11.488281 -31.203125 C 11.425781 -31.660156 10.902344 -32.117188 10.511719 -32.183594 C 10.3125 -32.183594 10.183594 -32.25 9.988281 -32.25 C 8.09375 -32.25 6.136719 -32.25 4.242188 -32.25 C 4.046875 -32.25 3.917969 -32.183594 3.722656 -32.183594 C 3.460938 -32.117188 3.265625 -31.988281 3.132812 -31.792969 C 2.9375 -31.464844 2.808594 -31.203125 2.742188 -30.8125 C 2.742188 -30.027344 2.675781 -29.179688 2.675781 -28.332031 C 2.675781 -26.570312 2.742188 -24.804688 2.742188 -23.042969 C 2.742188 -20.824219 2.742188 -18.539062 2.742188 -16.320312 Z M 2.742188 -16.320312 "/></g></g></g></svg>