<svg xmlns="http://www.w3.org/2000/svg" xmlns:xlink="http://www.w3.org/1999/xlink" width="1584" zoomAndPan="magnify" viewBox="0 0 1188 296.999993" height="396" preserveAspectRatio="xMidYMid meet" version="1.0"><defs><g/></defs><g fill="rgb(0%, 0%, 0%)" fill-opacity="0.4"><g transform="translate(99.106151, 215.769449)"><g><path d="M 10.472656 -74.054688 C 10.472656 -66.824219 10.472656 -60.089844 10.472656 -53.359375 C 10.722656 -43.632812 10.722656 -33.660156 10.222656 -23.6875 C 10.222656 -18.449219 9.972656 -12.964844 9.972656 -7.480469 C 9.972656 -6.234375 9.972656 -4.988281 10.222656 -3.738281 C 10.222656 -1.996094 12.46875 0 14.210938 0 C 14.710938 0 15.457031 0.25 15.957031 0.25 C 23.4375 0.25 30.667969 0.25 38.148438 0.25 C 38.648438 0.25 39.394531 0 39.894531 0 C 43.382812 -0.25 45.878906 -3.492188 46.375 -6.234375 C 46.375 -7.980469 46.625 -9.476562 46.625 -10.972656 C 46.625 -14.960938 46.625 -18.699219 46.625 -22.441406 C 46.625 -27.675781 46.625 -32.664062 46.625 -37.898438 C 46.625 -41.140625 46.625 -44.132812 47.375 -47.375 C 47.871094 -49.617188 47.871094 -51.863281 47.871094 -54.105469 C 48.121094 -57.597656 47.871094 -61.085938 48.121094 -64.578125 C 48.121094 -65.824219 48.121094 -67.070312 48.371094 -68.320312 C 48.621094 -69.816406 49.367188 -70.8125 50.617188 -71.308594 C 51.113281 -71.558594 51.613281 -72.058594 52.359375 -72.058594 C 53.359375 -72.308594 54.355469 -72.308594 55.105469 -72.308594 C 63.082031 -72.558594 63.082031 -72.558594 73.304688 -74.054688 C 78.789062 -74.300781 84.027344 -75.796875 89.261719 -76.546875 C 95.996094 -77.792969 102.226562 -80.039062 107.964844 -83.527344 C 110.457031 -85.273438 112.949219 -86.769531 115.195312 -88.515625 C 119.683594 -92.003906 123.671875 -96.246094 126.414062 -101.230469 C 128.90625 -105.71875 131.152344 -110.457031 132.398438 -115.441406 C 133.644531 -120.179688 133.394531 -124.917969 133.144531 -129.65625 C 133.144531 -131.648438 133.144531 -133.644531 132.898438 -135.390625 C 132.148438 -140.875 130.402344 -145.863281 126.914062 -150.351562 C 124.417969 -153.34375 122.175781 -156.582031 119.433594 -159.078125 C 118.433594 -160.324219 117.1875 -161.320312 115.941406 -162.320312 C 112.949219 -164.3125 110.207031 -166.308594 107.214844 -168.304688 C 104.472656 -169.800781 101.480469 -170.796875 98.488281 -172.042969 C 92.753906 -172.789062 87.269531 -174.285156 81.285156 -174.285156 C 75.300781 -174.039062 69.066406 -174.285156 63.082031 -174.285156 C 48.371094 -174.285156 33.660156 -174.285156 18.949219 -174.285156 C 17.453125 -174.285156 15.957031 -174.285156 14.210938 -173.789062 C 13.714844 -173.789062 12.21875 -172.789062 12.21875 -172.042969 C 11.96875 -171.542969 11.71875 -170.796875 11.71875 -170.296875 C 10.472656 -161.570312 10.222656 -153.09375 10.972656 -144.367188 C 11.46875 -139.628906 11.71875 -134.890625 11.71875 -130.152344 C 11.71875 -125.417969 11.71875 -120.429688 11.46875 -115.691406 C 11.21875 -113.449219 11.21875 -111.203125 11.21875 -108.960938 C 10.972656 -97.242188 11.71875 -85.273438 10.472656 -74.054688 Z M 62.582031 -163.066406 C 63.582031 -163.066406 64.578125 -163.066406 65.574219 -163.066406 C 70.3125 -163.316406 75.050781 -162.320312 79.539062 -160.824219 C 83.03125 -159.574219 85.773438 -157.332031 88.015625 -154.589844 C 90.507812 -151.847656 92.503906 -148.355469 94 -144.863281 C 95.246094 -142.121094 96.492188 -139.128906 96.492188 -135.890625 C 96.492188 -135.140625 96.742188 -134.640625 96.742188 -133.894531 C 97.742188 -129.15625 97.492188 -124.417969 96.742188 -119.683594 C 96.492188 -116.691406 95.746094 -114.195312 94.5 -111.453125 C 91.757812 -104.972656 88.265625 -98.988281 84.027344 -93.253906 C 82.53125 -91.257812 80.785156 -89.511719 78.542969 -88.015625 C 77.792969 -87.515625 77.046875 -87.019531 76.046875 -86.519531 C 71.558594 -83.277344 66.574219 -81.535156 61.085938 -80.785156 C 57.847656 -80.535156 54.605469 -80.285156 51.613281 -80.285156 C 50.117188 -80.039062 48.371094 -81.535156 48.371094 -83.03125 C 48.371094 -83.527344 48.121094 -83.777344 48.121094 -84.027344 C 48.121094 -85.023438 48.121094 -86.019531 48.121094 -87.019531 C 47.871094 -109.210938 47.871094 -131.648438 48.371094 -153.839844 C 48.371094 -155.335938 48.371094 -157.082031 48.621094 -158.578125 C 48.621094 -159.328125 48.871094 -159.824219 49.367188 -160.324219 C 49.867188 -161.570312 50.863281 -162.320312 52.113281 -162.566406 C 53.855469 -162.816406 55.351562 -163.066406 56.847656 -163.066406 C 58.84375 -163.316406 60.839844 -163.066406 62.582031 -163.066406 Z M 62.582031 -163.066406 "/></g></g></g><g fill="rgb(0%, 0%, 0%)" fill-opacity="0.4"><g transform="translate(234.745547, 215.769449)"><g><path d="M 106.21875 -72.058594 C 106.21875 -75.050781 105.96875 -77.292969 106.21875 -79.539062 C 106.21875 -83.03125 105.96875 -86.519531 105.21875 -90.011719 C 104.722656 -91.257812 104.722656 -92.503906 104.472656 -93.75 C 103.722656 -97.988281 101.980469 -101.730469 99.484375 -104.972656 C 96.492188 -108.960938 93.003906 -112.203125 89.261719 -115.195312 C 86.769531 -117.1875 84.277344 -118.933594 81.035156 -120.179688 C 78.542969 -121.179688 75.796875 -122.175781 73.054688 -123.421875 C 71.0625 -124.171875 68.816406 -124.667969 66.574219 -124.667969 C 64.328125 -124.667969 62.085938 -124.667969 59.839844 -124.667969 C 57.597656 -124.667969 55.601562 -124.171875 53.359375 -123.671875 C 46.128906 -122.175781 39.394531 -119.183594 32.414062 -116.691406 C 29.421875 -115.441406 26.929688 -113.699219 24.433594 -111.453125 C 20.945312 -108.210938 17.953125 -104.472656 15.707031 -100.234375 C 15.210938 -98.988281 14.710938 -97.742188 14.210938 -96.742188 C 13.964844 -95.996094 13.964844 -95.496094 13.714844 -94.75 C 13.714844 -93.75 13.964844 -93.003906 14.460938 -92.003906 C 14.960938 -91.007812 16.457031 -90.507812 17.703125 -90.757812 C 18.699219 -91.007812 19.449219 -91.507812 19.945312 -92.253906 C 21.691406 -94.25 22.691406 -96.742188 23.9375 -98.988281 C 25.683594 -101.730469 27.675781 -103.972656 30.167969 -105.96875 C 31.664062 -107.214844 33.160156 -108.460938 34.90625 -109.460938 C 36.652344 -110.707031 38.898438 -111.453125 41.140625 -111.703125 C 43.382812 -111.953125 45.628906 -112.453125 47.871094 -112.453125 C 54.355469 -113.199219 59.589844 -110.457031 63.832031 -105.71875 C 64.578125 -104.722656 65.328125 -103.476562 65.574219 -102.226562 C 67.070312 -97.988281 68.320312 -93.75 68.320312 -89.261719 C 68.070312 -87.019531 68.566406 -84.773438 68.816406 -82.53125 C 69.316406 -78.042969 68.816406 -73.554688 67.820312 -69.316406 C 67.820312 -68.320312 66.074219 -67.070312 65.078125 -66.824219 C 64.078125 -66.824219 63.082031 -66.824219 62.335938 -66.824219 C 59.34375 -67.070312 56.351562 -66.824219 53.609375 -66.574219 C 51.113281 -66.074219 48.621094 -65.824219 46.128906 -65.328125 C 44.632812 -65.328125 43.382812 -65.078125 42.136719 -64.828125 C 37.648438 -63.332031 33.160156 -61.835938 28.921875 -59.589844 C 22.9375 -56.601562 18.203125 -52.609375 14.210938 -47.625 C 12.714844 -45.628906 11.21875 -43.382812 10.222656 -40.890625 C 8.476562 -36.652344 7.230469 -31.914062 6.980469 -27.179688 C 6.484375 -20.445312 8.226562 -14.460938 12.21875 -8.976562 C 13.714844 -6.980469 15.707031 -5.234375 17.953125 -3.988281 C 22.191406 -1.746094 26.679688 -0.25 31.664062 -0.25 C 34.160156 -0.25 36.652344 -0.25 39.144531 -0.25 C 40.144531 -0.25 41.140625 -0.25 42.136719 -0.5 C 48.371094 -1.996094 54.605469 -3.492188 60.089844 -6.730469 C 62.832031 -8.476562 65.824219 -9.722656 68.566406 -11.21875 C 69.566406 -11.71875 71.308594 -11.46875 72.058594 -10.472656 C 72.804688 -9.722656 73.304688 -9.226562 74.054688 -8.476562 C 74.800781 -7.480469 75.796875 -6.484375 76.546875 -5.734375 C 78.789062 -3.492188 81.535156 -2.492188 84.527344 -2.242188 C 87.515625 -2.242188 90.757812 -2.242188 94 -2.242188 C 95.996094 -2.242188 97.742188 -2.992188 99.234375 -4.238281 C 100.234375 -5.234375 100.980469 -6.234375 101.730469 -7.230469 C 103.476562 -10.222656 104.472656 -13.714844 104.472656 -17.203125 C 104.472656 -19.449219 104.472656 -21.691406 104.472656 -23.9375 C 104.722656 -30.167969 104.472656 -36.152344 104.722656 -42.136719 C 104.722656 -47.375 104.722656 -52.359375 105.46875 -57.597656 C 105.96875 -62.582031 106.21875 -67.820312 106.21875 -72.058594 Z M 70.0625 -33.910156 C 69.816406 -32.664062 69.816406 -31.417969 69.566406 -30.167969 C 69.566406 -28.921875 68.816406 -27.925781 67.820312 -26.929688 C 66.824219 -26.179688 65.824219 -25.433594 64.578125 -25.183594 C 59.589844 -23.6875 54.605469 -23.1875 49.617188 -22.9375 C 46.875 -22.691406 44.632812 -23.1875 42.136719 -24.433594 C 38.898438 -26.179688 36.902344 -28.921875 35.40625 -32.164062 C 35.15625 -33.160156 34.90625 -34.160156 34.65625 -34.90625 C 33.410156 -38.898438 33.660156 -42.386719 35.40625 -46.128906 C 36.652344 -48.871094 38.398438 -50.863281 41.140625 -52.113281 C 44.632812 -53.359375 48.371094 -54.105469 52.113281 -55.105469 C 52.359375 -55.105469 52.859375 -55.105469 53.109375 -55.105469 C 57.597656 -55.351562 62.085938 -55.351562 66.324219 -53.855469 C 67.320312 -53.609375 67.820312 -52.859375 68.070312 -52.113281 C 68.320312 -51.613281 68.320312 -51.363281 68.566406 -51.113281 C 68.816406 -46.625 69.066406 -42.136719 69.816406 -37.898438 C 69.816406 -36.652344 69.816406 -35.40625 70.0625 -33.910156 Z M 70.0625 -33.910156 "/></g></g></g><g fill="rgb(0%, 0%, 0%)" fill-opacity="0.4"><g transform="translate(349.689952, 215.769449)"><g><path d="M 83.03125 -14.460938 C 83.277344 -13.964844 83.527344 -13.714844 83.777344 -13.464844 C 83.777344 -12.714844 84.027344 -12.21875 84.277344 -11.46875 C 84.277344 -9.722656 84.277344 -7.730469 84.277344 -5.734375 C 84.527344 -4.988281 84.773438 -3.988281 85.023438 -2.992188 C 85.523438 -1.496094 86.519531 -0.25 88.265625 0 C 89.761719 0.25 91.507812 0.5 93.003906 0.5 C 98.738281 0.746094 104.472656 0.746094 110.207031 0.5 C 111.203125 0.5 112.203125 0.5 113.199219 0.5 C 114.195312 0.25 114.945312 0 115.941406 -0.25 C 117.1875 -0.746094 117.9375 -1.746094 118.1875 -2.992188 C 118.433594 -3.738281 118.433594 -4.488281 118.433594 -4.988281 C 118.683594 -9.476562 118.933594 -13.964844 118.933594 -18.449219 C 118.683594 -27.925781 118.683594 -37.648438 118.433594 -47.125 C 118.1875 -58.34375 118.433594 -69.566406 118.683594 -80.785156 C 118.683594 -91.757812 118.683594 -102.476562 118.683594 -113.449219 C 118.683594 -114.945312 118.433594 -116.691406 118.1875 -118.1875 C 117.6875 -120.429688 116.441406 -122.175781 114.195312 -123.171875 C 112.699219 -123.921875 111.203125 -124.417969 109.460938 -124.417969 C 103.972656 -124.417969 98.738281 -124.417969 93.253906 -124.417969 C 92.503906 -124.417969 92.003906 -124.171875 91.257812 -124.171875 C 90.011719 -123.921875 88.015625 -122.175781 87.765625 -121.179688 C 87.019531 -115.941406 86.269531 -110.957031 86.269531 -105.71875 C 86.269531 -92.753906 86.269531 -79.539062 86.019531 -66.574219 C 86.019531 -62.582031 86.019531 -58.84375 85.773438 -55.105469 C 85.273438 -48.871094 85.273438 -42.886719 85.023438 -36.902344 C 85.023438 -35.15625 85.273438 -33.660156 85.023438 -31.914062 C 84.773438 -30.667969 84.527344 -29.421875 84.027344 -28.175781 C 83.777344 -27.425781 83.277344 -26.679688 82.53125 -25.929688 C 79.289062 -23.1875 75.796875 -20.945312 72.058594 -19.199219 C 70.5625 -18.449219 69.066406 -17.953125 67.570312 -17.453125 C 63.332031 -16.457031 58.84375 -16.207031 54.355469 -16.457031 C 52.359375 -16.707031 50.367188 -17.203125 48.621094 -17.703125 C 45.878906 -18.949219 43.882812 -20.695312 43.382812 -23.9375 C 42.886719 -26.929688 42.886719 -29.671875 42.886719 -32.664062 C 42.886719 -44.632812 42.636719 -56.847656 42.886719 -69.066406 C 42.886719 -80.785156 42.886719 -92.753906 43.382812 -104.472656 C 43.632812 -107.964844 43.382812 -111.453125 43.136719 -114.945312 C 43.136719 -116.9375 42.386719 -118.683594 41.640625 -120.429688 C 41.140625 -121.425781 40.394531 -122.175781 39.644531 -122.675781 C 37.898438 -123.671875 36.152344 -124.417969 34.160156 -124.417969 C 28.671875 -124.417969 23.4375 -124.417969 17.953125 -124.417969 C 17.203125 -124.417969 16.707031 -124.417969 15.957031 -124.417969 C 14.710938 -124.171875 13.714844 -123.421875 12.964844 -122.175781 C 11.96875 -120.929688 11.21875 -119.433594 11.21875 -117.9375 C 11.21875 -108.460938 10.972656 -99.234375 10.472656 -90.011719 C 10.472656 -89.511719 10.472656 -88.765625 10.472656 -88.015625 C 10.222656 -80.785156 10.472656 -73.304688 9.972656 -66.074219 C 9.476562 -52.609375 9.972656 -39.144531 9.476562 -25.683594 C 9.476562 -22.9375 9.972656 -20.195312 10.972656 -17.203125 C 11.21875 -15.957031 11.96875 -14.960938 12.714844 -13.964844 C 16.207031 -9.972656 19.699219 -6.484375 23.9375 -3.492188 C 26.929688 -1.496094 29.921875 0 33.660156 0.5 C 36.152344 0.746094 38.398438 1.746094 41.140625 1.996094 C 44.878906 1.996094 48.871094 2.242188 52.609375 2.242188 C 54.855469 2.242188 57.097656 1.746094 59.09375 0.746094 C 61.835938 -0.25 64.328125 -1.496094 66.824219 -2.992188 C 69.316406 -4.488281 71.558594 -5.984375 73.804688 -7.980469 C 76.046875 -9.722656 78.292969 -11.71875 80.535156 -13.464844 C 81.285156 -13.964844 82.28125 -13.964844 83.03125 -14.460938 Z M 83.03125 -14.460938 "/></g></g></g><g fill="rgb(0%, 0%, 0%)" fill-opacity="0.4"><g transform="translate(478.597198, 215.769449)"><g><path d="M 10.222656 -83.527344 C 10.472656 -83.527344 10.472656 -83.527344 10.472656 -83.527344 C 10.472656 -70.0625 10.472656 -56.601562 10.222656 -43.136719 C 10.222656 -40.890625 10.222656 -38.898438 9.972656 -36.652344 C 9.722656 -31.167969 9.476562 -25.683594 9.226562 -20.195312 C 9.226562 -19.449219 9.226562 -18.449219 9.226562 -17.453125 C 9.476562 -13.714844 9.722656 -9.722656 9.972656 -5.984375 C 9.972656 -4.988281 10.222656 -3.988281 10.472656 -3.242188 C 10.972656 -1.496094 12.964844 0 14.960938 0.25 C 15.457031 0.25 16.207031 0.25 16.707031 0.25 C 23.1875 0.25 29.421875 0.25 35.90625 0.25 C 36.902344 0.25 37.898438 0 38.648438 -0.25 C 40.144531 -0.25 41.140625 -0.746094 42.386719 -1.496094 C 43.632812 -2.492188 44.632812 -3.738281 44.878906 -5.234375 C 45.128906 -5.984375 45.128906 -6.484375 45.128906 -7.230469 C 45.628906 -11.71875 45.878906 -16.207031 46.128906 -20.695312 C 46.128906 -25.683594 46.625 -30.917969 45.378906 -35.90625 C 44.878906 -37.402344 44.878906 -38.898438 44.878906 -40.640625 C 44.878906 -43.136719 44.878906 -45.628906 44.878906 -48.371094 C 44.878906 -84.773438 45.128906 -121.179688 45.128906 -157.582031 C 45.128906 -160.574219 45.128906 -163.816406 44.878906 -167.054688 C 44.878906 -168.054688 44.878906 -169.050781 44.632812 -169.800781 C 44.382812 -171.292969 43.382812 -172.292969 42.136719 -172.789062 C 41.140625 -173.039062 39.894531 -173.539062 38.648438 -173.539062 C 32.164062 -173.789062 25.929688 -173.789062 19.449219 -173.789062 C 17.953125 -173.789062 16.207031 -173.039062 14.960938 -172.292969 C 13.714844 -171.542969 12.964844 -170.796875 12.46875 -169.550781 C 11.21875 -165.558594 10.472656 -161.320312 10.472656 -157.332031 C 10.472656 -152.34375 10.222656 -147.609375 10.222656 -142.871094 C 10.222656 -123.171875 10.222656 -103.226562 10.222656 -83.527344 Z M 10.222656 -83.527344 "/></g></g></g><g fill="rgb(0%, 0%, 0%)" fill-opacity="0.4"><g transform="translate(533.950024, 215.769449)"><g/></g></g><g fill="rgb(0%, 0%, 0%)" fill-opacity="0.4"><g transform="translate(583.568078, 215.769449)"><g><path d="M 84.527344 -55.105469 C 89.011719 -55.105469 93.5 -55.105469 97.988281 -55.105469 C 98.988281 -55.105469 99.984375 -55.105469 100.980469 -54.855469 C 101.480469 -54.605469 101.980469 -54.355469 102.476562 -53.855469 C 103.722656 -52.859375 104.722656 -51.613281 105.21875 -50.117188 C 106.714844 -46.128906 108.210938 -42.386719 109.707031 -38.398438 C 110.207031 -37.152344 110.707031 -36.152344 110.957031 -34.90625 C 112.949219 -25.433594 116.691406 -16.457031 119.183594 -7.230469 C 119.683594 -5.984375 120.179688 -4.988281 120.679688 -3.738281 C 121.675781 -1.746094 123.171875 -0.996094 125.167969 -0.5 C 126.414062 0 127.660156 0 128.90625 0 C 137.136719 0 145.613281 -0.25 153.839844 -0.5 C 154.839844 -0.5 155.835938 -0.746094 156.582031 -0.996094 C 158.078125 -1.496094 159.078125 -3.738281 158.578125 -4.988281 C 157.832031 -6.980469 157.082031 -9.226562 156.335938 -11.21875 C 153.59375 -17.703125 151.097656 -24.1875 148.855469 -30.917969 C 148.105469 -33.160156 147.609375 -35.15625 146.859375 -37.402344 C 142.871094 -47.375 139.128906 -57.597656 134.144531 -67.320312 C 132.898438 -69.816406 131.648438 -72.558594 130.652344 -75.300781 C 128.410156 -81.285156 126.164062 -87.269531 124.417969 -93.253906 C 122.425781 -100.234375 120.179688 -107.464844 117.1875 -114.195312 C 112.699219 -124.417969 108.960938 -134.890625 105.21875 -145.363281 C 102.976562 -152.097656 99.984375 -158.578125 97.242188 -164.8125 C 96.492188 -166.308594 95.746094 -167.804688 94.75 -169.050781 C 93.75 -170.796875 92.253906 -172.042969 90.261719 -172.292969 C 81.285156 -174.285156 71.808594 -174.535156 62.582031 -174.285156 C 62.085938 -174.285156 61.335938 -174.039062 60.839844 -174.039062 C 60.089844 -173.789062 59.589844 -173.289062 59.09375 -173.039062 C 58.09375 -172.292969 57.347656 -171.292969 56.847656 -170.046875 C 54.855469 -166.308594 53.609375 -162.320312 51.863281 -158.578125 C 50.367188 -151.597656 47.871094 -145.113281 46.375 -138.132812 C 45.128906 -132.148438 43.382812 -126.414062 41.390625 -120.679688 C 39.644531 -115.941406 38.148438 -110.957031 36.902344 -106.21875 C 36.152344 -103.476562 35.40625 -100.484375 34.410156 -97.742188 C 33.160156 -94.5 32.664062 -91.007812 31.664062 -87.765625 C 30.667969 -84.027344 29.421875 -80.285156 28.425781 -76.796875 C 27.925781 -74.800781 27.179688 -73.054688 26.679688 -71.308594 C 25.433594 -65.824219 23.6875 -60.839844 21.941406 -55.601562 C 18.949219 -46.128906 15.957031 -36.902344 12.714844 -27.425781 C 10.222656 -19.945312 7.980469 -12.21875 5.234375 -4.738281 C 4.988281 -3.988281 4.988281 -3.492188 4.988281 -2.742188 C 4.988281 -2.492188 4.988281 -2.242188 5.234375 -1.996094 C 5.734375 -0.996094 6.234375 -0.5 7.230469 -0.25 C 9.226562 0.25 11.21875 0 12.964844 0 C 16.457031 0.25 18.449219 -1.496094 19.699219 -4.488281 C 19.945312 -4.988281 20.445312 -5.484375 20.445312 -6.234375 C 22.191406 -12.21875 24.433594 -18.203125 25.929688 -24.433594 C 26.429688 -26.679688 26.929688 -28.921875 27.675781 -30.917969 C 28.921875 -36.902344 31.167969 -42.636719 32.914062 -48.371094 C 34.160156 -51.863281 36.902344 -52.859375 39.644531 -53.109375 C 41.640625 -53.109375 43.382812 -53.109375 45.378906 -53.109375 C 48.871094 -53.109375 52.359375 -53.359375 55.851562 -53.359375 C 58.09375 -53.609375 60.339844 -53.609375 62.582031 -54.105469 C 66.824219 -54.855469 70.8125 -55.105469 75.050781 -55.105469 C 78.292969 -55.105469 81.285156 -55.105469 84.527344 -55.105469 Z M 62.335938 -62.582031 C 56.351562 -62.582031 50.117188 -62.582031 44.132812 -62.582031 C 42.886719 -62.582031 41.640625 -62.832031 40.394531 -63.082031 C 39.394531 -63.082031 38.148438 -64.828125 38.398438 -65.824219 C 38.898438 -66.824219 38.898438 -67.820312 39.394531 -68.566406 C 41.140625 -73.554688 42.386719 -78.292969 43.632812 -83.277344 C 47.625 -97.492188 47.125 -96.742188 51.613281 -109.707031 C 55.601562 -121.179688 59.34375 -132.898438 63.082031 -144.367188 C 63.332031 -144.863281 63.582031 -145.363281 63.832031 -146.113281 C 64.078125 -146.113281 64.328125 -146.359375 64.578125 -146.609375 C 65.078125 -146.859375 65.824219 -146.609375 66.074219 -146.113281 C 67.320312 -144.863281 67.820312 -143.121094 68.320312 -141.871094 C 69.316406 -139.128906 70.0625 -136.386719 70.8125 -133.644531 C 72.308594 -128.65625 74.054688 -123.921875 76.296875 -119.183594 C 80.785156 -109.460938 85.273438 -99.484375 89.511719 -89.761719 C 90.011719 -88.765625 90.261719 -87.765625 90.757812 -87.019531 C 92.753906 -80.785156 94.996094 -74.300781 97.492188 -68.070312 C 97.742188 -67.820312 97.742188 -67.570312 97.742188 -67.320312 C 97.988281 -66.074219 96.992188 -64.578125 95.746094 -64.578125 C 87.765625 -63.832031 79.789062 -63.332031 71.808594 -62.582031 C 68.816406 -62.582031 65.574219 -62.582031 62.335938 -62.582031 Z M 62.335938 -62.582031 "/></g></g></g><g fill="rgb(0%, 0%, 0%)" fill-opacity="0.4"><g transform="translate(746.634522, 215.769449)"><g><path d="M 10.222656 -83.527344 C 10.472656 -83.527344 10.472656 -83.527344 10.472656 -83.527344 C 10.472656 -70.0625 10.472656 -56.601562 10.222656 -43.136719 C 10.222656 -40.890625 10.222656 -38.898438 9.972656 -36.652344 C 9.722656 -31.167969 9.476562 -25.683594 9.226562 -20.195312 C 9.226562 -19.449219 9.226562 -18.449219 9.226562 -17.453125 C 9.476562 -13.714844 9.722656 -9.722656 9.972656 -5.984375 C 9.972656 -4.988281 10.222656 -3.988281 10.472656 -3.242188 C 10.972656 -1.496094 12.964844 0 14.960938 0.25 C 15.457031 0.25 16.207031 0.25 16.707031 0.25 C 23.1875 0.25 29.421875 0.25 35.90625 0.25 C 36.902344 0.25 37.898438 0 38.648438 -0.25 C 40.144531 -0.25 41.140625 -0.746094 42.386719 -1.496094 C 43.632812 -2.492188 44.632812 -3.738281 44.878906 -5.234375 C 45.128906 -5.984375 45.128906 -6.484375 45.128906 -7.230469 C 45.628906 -11.71875 45.878906 -16.207031 46.128906 -20.695312 C 46.128906 -25.683594 46.625 -30.917969 45.378906 -35.90625 C 44.878906 -37.402344 44.878906 -38.898438 44.878906 -40.640625 C 44.878906 -43.136719 44.878906 -45.628906 44.878906 -48.371094 C 44.878906 -84.773438 45.128906 -121.179688 45.128906 -157.582031 C 45.128906 -160.574219 45.128906 -163.816406 44.878906 -167.054688 C 44.878906 -168.054688 44.878906 -169.050781 44.632812 -169.800781 C 44.382812 -171.292969 43.382812 -172.292969 42.136719 -172.789062 C 41.140625 -173.039062 39.894531 -173.539062 38.648438 -173.539062 C 32.164062 -173.789062 25.929688 -173.789062 19.449219 -173.789062 C 17.953125 -173.789062 16.207031 -173.039062 14.960938 -172.292969 C 13.714844 -171.542969 12.964844 -170.796875 12.46875 -169.550781 C 11.21875 -165.558594 10.472656 -161.320312 10.472656 -157.332031 C 10.472656 -152.34375 10.222656 -147.609375 10.222656 -142.871094 C 10.222656 -123.171875 10.222656 -103.226562 10.222656 -83.527344 Z M 10.222656 -83.527344 "/></g></g></g><g fill="rgb(0%, 0%, 0%)" fill-opacity="0.4"><g transform="translate(801.987348, 215.769449)"><g><path d="M 10.222656 -83.527344 C 10.472656 -83.527344 10.472656 -83.527344 10.472656 -83.527344 C 10.472656 -70.0625 10.472656 -56.601562 10.222656 -43.136719 C 10.222656 -40.890625 10.222656 -38.898438 9.972656 -36.652344 C 9.722656 -31.167969 9.476562 -25.683594 9.226562 -20.195312 C 9.226562 -19.449219 9.226562 -18.449219 9.226562 -17.453125 C 9.476562 -13.714844 9.722656 -9.722656 9.972656 -5.984375 C 9.972656 -4.988281 10.222656 -3.988281 10.472656 -3.242188 C 10.972656 -1.496094 12.964844 0 14.960938 0.25 C 15.457031 0.25 16.207031 0.25 16.707031 0.25 C 23.1875 0.25 29.421875 0.25 35.90625 0.25 C 36.902344 0.25 37.898438 0 38.648438 -0.25 C 40.144531 -0.25 41.140625 -0.746094 42.386719 -1.496094 C 43.632812 -2.492188 44.632812 -3.738281 44.878906 -5.234375 C 45.128906 -5.984375 45.128906 -6.484375 45.128906 -7.230469 C 45.628906 -11.71875 45.878906 -16.207031 46.128906 -20.695312 C 46.128906 -25.683594 46.625 -30.917969 45.378906 -35.90625 C 44.878906 -37.402344 44.878906 -38.898438 44.878906 -40.640625 C 44.878906 -43.136719 44.878906 -45.628906 44.878906 -48.371094 C 44.878906 -84.773438 45.128906 -121.179688 45.128906 -157.582031 C 45.128906 -160.574219 45.128906 -163.816406 44.878906 -167.054688 C 44.878906 -168.054688 44.878906 -169.050781 44.632812 -169.800781 C 44.382812 -171.292969 43.382812 -172.292969 42.136719 -172.789062 C 41.140625 -173.039062 39.894531 -173.539062 38.648438 -173.539062 C 32.164062 -173.789062 25.929688 -173.789062 19.449219 -173.789062 C 17.953125 -173.789062 16.207031 -173.039062 14.960938 -172.292969 C 13.714844 -171.542969 12.964844 -170.796875 12.46875 -169.550781 C 11.21875 -165.558594 10.472656 -161.320312 10.472656 -157.332031 C 10.472656 -152.34375 10.222656 -147.609375 10.222656 -142.871094 C 10.222656 -123.171875 10.222656 -103.226562 10.222656 -83.527344 Z M 10.222656 -83.527344 "/></g></g></g><g fill="rgb(0%, 0%, 0%)" fill-opacity="0.4"><g transform="translate(857.340173, 215.769449)"><g><path d="M 65.328125 0.746094 C 67.070312 0.746094 69.066406 0.996094 71.0625 0.996094 C 76.546875 0.996094 81.78125 0.25 87.019531 -1.746094 C 93.75 -4.488281 100.234375 -7.730469 106.46875 -11.71875 C 107.464844 -12.21875 108.210938 -12.964844 108.960938 -13.464844 C 110.207031 -14.460938 110.707031 -15.957031 110.957031 -17.703125 C 111.203125 -19.945312 109.210938 -21.941406 106.964844 -21.691406 C 105.21875 -21.441406 103.722656 -21.441406 102.226562 -20.695312 C 99.234375 -19.449219 95.996094 -18.949219 93.003906 -17.953125 C 89.511719 -16.953125 86.019531 -16.707031 82.53125 -16.953125 C 79.289062 -17.203125 76.296875 -18.203125 73.304688 -19.199219 C 68.320312 -20.695312 63.832031 -23.1875 60.089844 -26.929688 C 55.601562 -30.917969 52.113281 -35.90625 48.871094 -40.890625 C 48.371094 -41.640625 48.121094 -42.136719 47.871094 -42.636719 C 45.878906 -48.121094 43.632812 -53.359375 42.386719 -59.09375 C 42.386719 -59.839844 43.632812 -61.835938 44.382812 -62.085938 C 45.128906 -62.335938 45.628906 -62.582031 46.128906 -62.832031 C 50.617188 -63.582031 55.105469 -63.832031 59.589844 -63.832031 C 66.324219 -63.832031 73.054688 -63.832031 79.789062 -63.832031 C 89.761719 -63.832031 99.484375 -64.328125 109.460938 -64.828125 C 110.457031 -64.828125 111.453125 -65.078125 112.203125 -65.328125 C 113.699219 -65.574219 114.695312 -66.324219 115.195312 -67.320312 C 115.941406 -68.566406 116.441406 -69.816406 116.691406 -71.0625 C 117.1875 -75.050781 116.691406 -79.289062 115.691406 -83.277344 C 115.195312 -85.523438 114.695312 -87.765625 114.195312 -89.761719 C 113.199219 -93.75 112.453125 -97.988281 110.957031 -101.980469 C 109.707031 -105.71875 107.464844 -108.710938 104.472656 -111.203125 C 98.238281 -116.691406 91.257812 -121.179688 83.03125 -123.421875 C 80.785156 -124.171875 78.789062 -124.667969 76.546875 -124.667969 C 73.554688 -124.667969 70.8125 -124.667969 68.070312 -123.671875 C 66.824219 -123.171875 65.574219 -123.171875 64.328125 -122.921875 C 58.84375 -121.675781 53.609375 -120.679688 48.371094 -118.933594 C 40.394531 -116.691406 32.914062 -112.949219 26.679688 -107.214844 C 25.683594 -106.46875 24.683594 -105.46875 23.9375 -104.722656 C 19.699219 -100.730469 16.457031 -95.996094 13.964844 -90.757812 C 10.472656 -83.03125 8.726562 -75.050781 7.230469 -66.824219 C 6.980469 -66.074219 6.980469 -65.574219 6.980469 -64.828125 C 6.730469 -56.351562 6.484375 -47.625 8.726562 -39.144531 C 9.226562 -35.90625 10.472656 -33.160156 11.96875 -30.167969 C 14.710938 -25.433594 17.953125 -21.195312 21.941406 -17.453125 C 22.691406 -16.707031 23.4375 -16.207031 24.1875 -15.457031 C 30.417969 -11.21875 36.902344 -6.980469 43.882812 -3.738281 C 48.871094 -1.496094 54.105469 0.25 59.589844 0.5 C 61.335938 0.5 63.332031 0.5 65.328125 0.746094 Z M 63.832031 -72.308594 C 59.09375 -72.308594 54.355469 -72.308594 49.617188 -72.308594 C 48.371094 -72.308594 47.125 -72.558594 45.878906 -72.804688 C 44.632812 -73.054688 43.382812 -74.300781 43.382812 -75.550781 C 43.136719 -76.046875 43.136719 -76.796875 43.136719 -77.292969 C 43.136719 -78.542969 43.382812 -79.789062 43.632812 -81.035156 C 44.632812 -86.019531 46.128906 -91.007812 47.871094 -95.746094 C 48.121094 -96.992188 48.871094 -97.988281 49.617188 -99.234375 C 51.113281 -101.480469 52.859375 -103.722656 55.105469 -105.71875 C 56.601562 -107.464844 58.59375 -108.710938 60.589844 -109.460938 C 63.332031 -110.457031 65.824219 -111.453125 68.816406 -111.703125 C 70.8125 -111.703125 72.558594 -111.953125 74.550781 -111.953125 C 78.292969 -111.953125 81.285156 -110.207031 83.277344 -106.964844 C 84.527344 -104.722656 85.523438 -102.476562 85.773438 -99.984375 C 86.019531 -98.988281 86.269531 -97.988281 86.269531 -96.992188 C 86.269531 -92.003906 86.269531 -86.769531 86.019531 -81.78125 C 86.019531 -80.535156 85.773438 -79.289062 85.773438 -78.042969 C 85.273438 -74.054688 83.03125 -72.804688 80.039062 -72.558594 C 77.292969 -72.308594 74.300781 -72.308594 71.558594 -72.308594 C 69.066406 -72.308594 66.324219 -72.308594 63.832031 -72.308594 Z M 63.832031 -72.308594 "/></g></g></g><g fill="rgb(0%, 0%, 0%)" fill-opacity="0.4"><g transform="translate(981.260728, 215.769449)"><g><path d="M 10.472656 -62.335938 C 10.472656 -55.601562 10.472656 -48.871094 10.222656 -42.136719 C 9.722656 -30.667969 10.472656 -19.199219 10.222656 -7.730469 C 10.222656 -7.230469 10.222656 -6.980469 10.222656 -6.730469 C 10.472656 -3.988281 11.96875 -1.996094 14.460938 -0.746094 C 15.210938 -0.25 16.207031 0 17.203125 0 C 24.1875 0 31.167969 0 38.148438 0 C 38.898438 0 39.394531 -0.25 40.144531 -0.25 C 42.136719 -0.5 44.382812 -2.992188 44.382812 -4.738281 C 44.632812 -5.484375 44.632812 -5.984375 44.632812 -6.730469 C 44.382812 -17.203125 44.878906 -27.675781 43.632812 -38.148438 C 43.382812 -40.394531 43.382812 -42.636719 43.382812 -44.878906 C 43.136719 -58.09375 43.136719 -71.0625 43.136719 -84.277344 C 43.136719 -86.269531 43.136719 -88.015625 43.382812 -90.011719 C 43.382812 -91.507812 43.882812 -93.003906 44.382812 -94.75 C 44.878906 -96.492188 45.878906 -98.238281 47.375 -99.484375 C 49.867188 -101.480469 52.609375 -103.226562 55.351562 -104.722656 C 55.851562 -104.972656 56.601562 -105.21875 57.097656 -105.46875 C 58.84375 -105.96875 60.839844 -106.46875 62.582031 -106.964844 C 67.070312 -107.964844 71.558594 -107.464844 75.796875 -105.71875 C 77.792969 -104.722656 79.539062 -103.476562 81.035156 -101.480469 C 83.03125 -98.238281 84.773438 -94.75 85.273438 -91.007812 C 85.523438 -89.011719 85.523438 -87.269531 85.773438 -85.273438 C 85.773438 -80.785156 85.523438 -76.296875 85.523438 -71.808594 C 85.523438 -54.355469 85.273438 -36.652344 85.273438 -19.199219 C 85.023438 -16.707031 85.023438 -13.964844 85.273438 -11.46875 C 85.273438 -8.976562 86.269531 -6.484375 87.515625 -4.238281 C 88.015625 -3.492188 88.765625 -2.742188 89.511719 -2.242188 C 91.507812 -0.996094 93.5 0 95.746094 0 C 101.480469 0 107.214844 0 112.949219 0 C 113.699219 0 114.195312 -0.25 114.945312 -0.25 C 116.9375 -0.5 118.933594 -2.742188 119.433594 -4.738281 C 119.929688 -6.980469 119.929688 -8.976562 119.929688 -11.21875 C 119.433594 -27.675781 119.683594 -43.882812 119.683594 -60.089844 C 119.683594 -68.566406 119.683594 -76.796875 119.683594 -85.023438 C 119.683594 -91.507812 119.183594 -97.742188 117.4375 -103.972656 C 116.191406 -108.710938 113.945312 -112.949219 110.207031 -116.191406 C 107.964844 -118.433594 105.21875 -120.179688 102.476562 -121.675781 C 99.484375 -122.921875 96.492188 -124.171875 93.253906 -124.417969 C 88.265625 -124.667969 83.03125 -124.917969 78.042969 -123.421875 C 76.796875 -122.921875 75.550781 -122.675781 74.300781 -122.675781 C 71.0625 -122.675781 68.070312 -121.425781 65.078125 -120.429688 C 61.835938 -119.433594 58.59375 -117.9375 55.601562 -115.941406 C 52.609375 -114.195312 49.617188 -112.203125 46.625 -110.457031 C 45.878906 -109.957031 44.632812 -110.707031 44.382812 -111.453125 C 44.132812 -112.949219 44.382812 -114.695312 44.132812 -116.191406 C 44.132812 -117.1875 44.132812 -118.1875 43.882812 -119.183594 C 43.632812 -120.929688 41.640625 -122.675781 40.144531 -122.921875 C 39.394531 -122.921875 38.898438 -123.171875 38.148438 -123.171875 C 30.917969 -123.171875 23.4375 -123.171875 16.207031 -123.171875 C 15.457031 -123.171875 14.960938 -122.921875 14.210938 -122.921875 C 13.214844 -122.675781 12.46875 -122.175781 11.96875 -121.425781 C 11.21875 -120.179688 10.722656 -119.183594 10.472656 -117.6875 C 10.472656 -114.695312 10.222656 -111.453125 10.222656 -108.210938 C 10.222656 -101.480469 10.472656 -94.75 10.472656 -88.015625 C 10.472656 -79.539062 10.472656 -70.8125 10.472656 -62.335938 Z M 10.472656 -62.335938 "/></g></g></g><g fill="rgb(0%, 0%, 0%)" fill-opacity="1"><g transform="translate(88.086689, 204.749987)"><g><path d="M 10.472656 -74.054688 C 10.472656 -66.824219 10.472656 -60.089844 10.472656 -53.359375 C 10.722656 -43.632812 10.722656 -33.660156 10.222656 -23.6875 C 10.222656 -18.449219 9.972656 -12.964844 9.972656 -7.480469 C 9.972656 -6.234375 9.972656 -4.988281 10.222656 -3.738281 C 10.222656 -1.996094 12.46875 0 14.210938 0 C 14.710938 0 15.457031 0.25 15.957031 0.25 C 23.4375 0.25 30.667969 0.25 38.148438 0.25 C 38.648438 0.25 39.394531 0 39.894531 0 C 43.382812 -0.25 45.878906 -3.492188 46.375 -6.234375 C 46.375 -7.980469 46.625 -9.476562 46.625 -10.972656 C 46.625 -14.960938 46.625 -18.699219 46.625 -22.441406 C 46.625 -27.675781 46.625 -32.664062 46.625 -37.898438 C 46.625 -41.140625 46.625 -44.132812 47.375 -47.375 C 47.871094 -49.617188 47.871094 -51.863281 47.871094 -54.105469 C 48.121094 -57.597656 47.871094 -61.085938 48.121094 -64.578125 C 48.121094 -65.824219 48.121094 -67.070312 48.371094 -68.320312 C 48.621094 -69.816406 49.367188 -70.8125 50.617188 -71.308594 C 51.113281 -71.558594 51.613281 -72.058594 52.359375 -72.058594 C 53.359375 -72.308594 54.355469 -72.308594 55.105469 -72.308594 C 63.082031 -72.558594 63.082031 -72.558594 73.304688 -74.054688 C 78.789062 -74.300781 84.027344 -75.796875 89.261719 -76.546875 C 95.996094 -77.792969 102.226562 -80.039062 107.964844 -83.527344 C 110.457031 -85.273438 112.949219 -86.769531 115.195312 -88.515625 C 119.683594 -92.003906 123.671875 -96.246094 126.414062 -101.230469 C 128.90625 -105.71875 131.152344 -110.457031 132.398438 -115.441406 C 133.644531 -120.179688 133.394531 -124.917969 133.144531 -129.65625 C 133.144531 -131.648438 133.144531 -133.644531 132.898438 -135.390625 C 132.148438 -140.875 130.402344 -145.863281 126.914062 -150.351562 C 124.417969 -153.34375 122.175781 -156.582031 119.433594 -159.078125 C 118.433594 -160.324219 117.1875 -161.320312 115.941406 -162.320312 C 112.949219 -164.3125 110.207031 -166.308594 107.214844 -168.304688 C 104.472656 -169.800781 101.480469 -170.796875 98.488281 -172.042969 C 92.753906 -172.789062 87.269531 -174.285156 81.285156 -174.285156 C 75.300781 -174.039062 69.066406 -174.285156 63.082031 -174.285156 C 48.371094 -174.285156 33.660156 -174.285156 18.949219 -174.285156 C 17.453125 -174.285156 15.957031 -174.285156 14.210938 -173.789062 C 13.714844 -173.789062 12.21875 -172.789062 12.21875 -172.042969 C 11.96875 -171.542969 11.71875 -170.796875 11.71875 -170.296875 C 10.472656 -161.570312 10.222656 -153.09375 10.972656 -144.367188 C 11.46875 -139.628906 11.71875 -134.890625 11.71875 -130.152344 C 11.71875 -125.417969 11.71875 -120.429688 11.46875 -115.691406 C 11.21875 -113.449219 11.21875 -111.203125 11.21875 -108.960938 C 10.972656 -97.242188 11.71875 -85.273438 10.472656 -74.054688 Z M 62.582031 -163.066406 C 63.582031 -163.066406 64.578125 -163.066406 65.574219 -163.066406 C 70.3125 -163.316406 75.050781 -162.320312 79.539062 -160.824219 C 83.03125 -159.574219 85.773438 -157.332031 88.015625 -154.589844 C 90.507812 -151.847656 92.503906 -148.355469 94 -144.863281 C 95.246094 -142.121094 96.492188 -139.128906 96.492188 -135.890625 C 96.492188 -135.140625 96.742188 -134.640625 96.742188 -133.894531 C 97.742188 -129.15625 97.492188 -124.417969 96.742188 -119.683594 C 96.492188 -116.691406 95.746094 -114.195312 94.5 -111.453125 C 91.757812 -104.972656 88.265625 -98.988281 84.027344 -93.253906 C 82.53125 -91.257812 80.785156 -89.511719 78.542969 -88.015625 C 77.792969 -87.515625 77.046875 -87.019531 76.046875 -86.519531 C 71.558594 -83.277344 66.574219 -81.535156 61.085938 -80.785156 C 57.847656 -80.535156 54.605469 -80.285156 51.613281 -80.285156 C 50.117188 -80.039062 48.371094 -81.535156 48.371094 -83.03125 C 48.371094 -83.527344 48.121094 -83.777344 48.121094 -84.027344 C 48.121094 -85.023438 48.121094 -86.019531 48.121094 -87.019531 C 47.871094 -109.210938 47.871094 -131.648438 48.371094 -153.839844 C 48.371094 -155.335938 48.371094 -157.082031 48.621094 -158.578125 C 48.621094 -159.328125 48.871094 -159.824219 49.367188 -160.324219 C 49.867188 -161.570312 50.863281 -162.320312 52.113281 -162.566406 C 53.855469 -162.816406 55.351562 -163.066406 56.847656 -163.066406 C 58.84375 -163.316406 60.839844 -163.066406 62.582031 -163.066406 Z M 62.582031 -163.066406 "/></g></g></g><g fill="rgb(0%, 0%, 0%)" fill-opacity="1"><g transform="translate(223.726085, 204.749987)"><g><path d="M 106.21875 -72.058594 C 106.21875 -75.050781 105.96875 -77.292969 106.21875 -79.539062 C 106.21875 -83.03125 105.96875 -86.519531 105.21875 -90.011719 C 104.722656 -91.257812 104.722656 -92.503906 104.472656 -93.75 C 103.722656 -97.988281 101.980469 -101.730469 99.484375 -104.972656 C 96.492188 -108.960938 93.003906 -112.203125 89.261719 -115.195312 C 86.769531 -117.1875 84.277344 -118.933594 81.035156 -120.179688 C 78.542969 -121.179688 75.796875 -122.175781 73.054688 -123.421875 C 71.0625 -124.171875 68.816406 -124.667969 66.574219 -124.667969 C 64.328125 -124.667969 62.085938 -124.667969 59.839844 -124.667969 C 57.597656 -124.667969 55.601562 -124.171875 53.359375 -123.671875 C 46.128906 -122.175781 39.394531 -119.183594 32.414062 -116.691406 C 29.421875 -115.441406 26.929688 -113.699219 24.433594 -111.453125 C 20.945312 -108.210938 17.953125 -104.472656 15.707031 -100.234375 C 15.210938 -98.988281 14.710938 -97.742188 14.210938 -96.742188 C 13.964844 -95.996094 13.964844 -95.496094 13.714844 -94.75 C 13.714844 -93.75 13.964844 -93.003906 14.460938 -92.003906 C 14.960938 -91.007812 16.457031 -90.507812 17.703125 -90.757812 C 18.699219 -91.007812 19.449219 -91.507812 19.945312 -92.253906 C 21.691406 -94.25 22.691406 -96.742188 23.9375 -98.988281 C 25.683594 -101.730469 27.675781 -103.972656 30.167969 -105.96875 C 31.664062 -107.214844 33.160156 -108.460938 34.90625 -109.460938 C 36.652344 -110.707031 38.898438 -111.453125 41.140625 -111.703125 C 43.382812 -111.953125 45.628906 -112.453125 47.871094 -112.453125 C 54.355469 -113.199219 59.589844 -110.457031 63.832031 -105.71875 C 64.578125 -104.722656 65.328125 -103.476562 65.574219 -102.226562 C 67.070312 -97.988281 68.320312 -93.75 68.320312 -89.261719 C 68.070312 -87.019531 68.566406 -84.773438 68.816406 -82.53125 C 69.316406 -78.042969 68.816406 -73.554688 67.820312 -69.316406 C 67.820312 -68.320312 66.074219 -67.070312 65.078125 -66.824219 C 64.078125 -66.824219 63.082031 -66.824219 62.335938 -66.824219 C 59.34375 -67.070312 56.351562 -66.824219 53.609375 -66.574219 C 51.113281 -66.074219 48.621094 -65.824219 46.128906 -65.328125 C 44.632812 -65.328125 43.382812 -65.078125 42.136719 -64.828125 C 37.648438 -63.332031 33.160156 -61.835938 28.921875 -59.589844 C 22.9375 -56.601562 18.203125 -52.609375 14.210938 -47.625 C 12.714844 -45.628906 11.21875 -43.382812 10.222656 -40.890625 C 8.476562 -36.652344 7.230469 -31.914062 6.980469 -27.179688 C 6.484375 -20.445312 8.226562 -14.460938 12.21875 -8.976562 C 13.714844 -6.980469 15.707031 -5.234375 17.953125 -3.988281 C 22.191406 -1.746094 26.679688 -0.25 31.664062 -0.25 C 34.160156 -0.25 36.652344 -0.25 39.144531 -0.25 C 40.144531 -0.25 41.140625 -0.25 42.136719 -0.5 C 48.371094 -1.996094 54.605469 -3.492188 60.089844 -6.730469 C 62.832031 -8.476562 65.824219 -9.722656 68.566406 -11.21875 C 69.566406 -11.71875 71.308594 -11.46875 72.058594 -10.472656 C 72.804688 -9.722656 73.304688 -9.226562 74.054688 -8.476562 C 74.800781 -7.480469 75.796875 -6.484375 76.546875 -5.734375 C 78.789062 -3.492188 81.535156 -2.492188 84.527344 -2.242188 C 87.515625 -2.242188 90.757812 -2.242188 94 -2.242188 C 95.996094 -2.242188 97.742188 -2.992188 99.234375 -4.238281 C 100.234375 -5.234375 100.980469 -6.234375 101.730469 -7.230469 C 103.476562 -10.222656 104.472656 -13.714844 104.472656 -17.203125 C 104.472656 -19.449219 104.472656 -21.691406 104.472656 -23.9375 C 104.722656 -30.167969 104.472656 -36.152344 104.722656 -42.136719 C 104.722656 -47.375 104.722656 -52.359375 105.46875 -57.597656 C 105.96875 -62.582031 106.21875 -67.820312 106.21875 -72.058594 Z M 70.0625 -33.910156 C 69.816406 -32.664062 69.816406 -31.417969 69.566406 -30.167969 C 69.566406 -28.921875 68.816406 -27.925781 67.820312 -26.929688 C 66.824219 -26.179688 65.824219 -25.433594 64.578125 -25.183594 C 59.589844 -23.6875 54.605469 -23.1875 49.617188 -22.9375 C 46.875 -22.691406 44.632812 -23.1875 42.136719 -24.433594 C 38.898438 -26.179688 36.902344 -28.921875 35.40625 -32.164062 C 35.15625 -33.160156 34.90625 -34.160156 34.65625 -34.90625 C 33.410156 -38.898438 33.660156 -42.386719 35.40625 -46.128906 C 36.652344 -48.871094 38.398438 -50.863281 41.140625 -52.113281 C 44.632812 -53.359375 48.371094 -54.105469 52.113281 -55.105469 C 52.359375 -55.105469 52.859375 -55.105469 53.109375 -55.105469 C 57.597656 -55.351562 62.085938 -55.351562 66.324219 -53.855469 C 67.320312 -53.609375 67.820312 -52.859375 68.070312 -52.113281 C 68.320312 -51.613281 68.320312 -51.363281 68.566406 -51.113281 C 68.816406 -46.625 69.066406 -42.136719 69.816406 -37.898438 C 69.816406 -36.652344 69.816406 -35.40625 70.0625 -33.910156 Z M 70.0625 -33.910156 "/></g></g></g><g fill="rgb(0%, 0%, 0%)" fill-opacity="1"><g transform="translate(338.670489, 204.749987)"><g><path d="M 83.03125 -14.460938 C 83.277344 -13.964844 83.527344 -13.714844 83.777344 -13.464844 C 83.777344 -12.714844 84.027344 -12.21875 84.277344 -11.46875 C 84.277344 -9.722656 84.277344 -7.730469 84.277344 -5.734375 C 84.527344 -4.988281 84.773438 -3.988281 85.023438 -2.992188 C 85.523438 -1.496094 86.519531 -0.25 88.265625 0 C 89.761719 0.25 91.507812 0.5 93.003906 0.5 C 98.738281 0.746094 104.472656 0.746094 110.207031 0.5 C 111.203125 0.5 112.203125 0.5 113.199219 0.5 C 114.195312 0.25 114.945312 0 115.941406 -0.25 C 117.1875 -0.746094 117.9375 -1.746094 118.1875 -2.992188 C 118.433594 -3.738281 118.433594 -4.488281 118.433594 -4.988281 C 118.683594 -9.476562 118.933594 -13.964844 118.933594 -18.449219 C 118.683594 -27.925781 118.683594 -37.648438 118.433594 -47.125 C 118.1875 -58.34375 118.433594 -69.566406 118.683594 -80.785156 C 118.683594 -91.757812 118.683594 -102.476562 118.683594 -113.449219 C 118.683594 -114.945312 118.433594 -116.691406 118.1875 -118.1875 C 117.6875 -120.429688 116.441406 -122.175781 114.195312 -123.171875 C 112.699219 -123.921875 111.203125 -124.417969 109.460938 -124.417969 C 103.972656 -124.417969 98.738281 -124.417969 93.253906 -124.417969 C 92.503906 -124.417969 92.003906 -124.171875 91.257812 -124.171875 C 90.011719 -123.921875 88.015625 -122.175781 87.765625 -121.179688 C 87.019531 -115.941406 86.269531 -110.957031 86.269531 -105.71875 C 86.269531 -92.753906 86.269531 -79.539062 86.019531 -66.574219 C 86.019531 -62.582031 86.019531 -58.84375 85.773438 -55.105469 C 85.273438 -48.871094 85.273438 -42.886719 85.023438 -36.902344 C 85.023438 -35.15625 85.273438 -33.660156 85.023438 -31.914062 C 84.773438 -30.667969 84.527344 -29.421875 84.027344 -28.175781 C 83.777344 -27.425781 83.277344 -26.679688 82.53125 -25.929688 C 79.289062 -23.1875 75.796875 -20.945312 72.058594 -19.199219 C 70.5625 -18.449219 69.066406 -17.953125 67.570312 -17.453125 C 63.332031 -16.457031 58.84375 -16.207031 54.355469 -16.457031 C 52.359375 -16.707031 50.367188 -17.203125 48.621094 -17.703125 C 45.878906 -18.949219 43.882812 -20.695312 43.382812 -23.9375 C 42.886719 -26.929688 42.886719 -29.671875 42.886719 -32.664062 C 42.886719 -44.632812 42.636719 -56.847656 42.886719 -69.066406 C 42.886719 -80.785156 42.886719 -92.753906 43.382812 -104.472656 C 43.632812 -107.964844 43.382812 -111.453125 43.136719 -114.945312 C 43.136719 -116.9375 42.386719 -118.683594 41.640625 -120.429688 C 41.140625 -121.425781 40.394531 -122.175781 39.644531 -122.675781 C 37.898438 -123.671875 36.152344 -124.417969 34.160156 -124.417969 C 28.671875 -124.417969 23.4375 -124.417969 17.953125 -124.417969 C 17.203125 -124.417969 16.707031 -124.417969 15.957031 -124.417969 C 14.710938 -124.171875 13.714844 -123.421875 12.964844 -122.175781 C 11.96875 -120.929688 11.21875 -119.433594 11.21875 -117.9375 C 11.21875 -108.460938 10.972656 -99.234375 10.472656 -90.011719 C 10.472656 -89.511719 10.472656 -88.765625 10.472656 -88.015625 C 10.222656 -80.785156 10.472656 -73.304688 9.972656 -66.074219 C 9.476562 -52.609375 9.972656 -39.144531 9.476562 -25.683594 C 9.476562 -22.9375 9.972656 -20.195312 10.972656 -17.203125 C 11.21875 -15.957031 11.96875 -14.960938 12.714844 -13.964844 C 16.207031 -9.972656 19.699219 -6.484375 23.9375 -3.492188 C 26.929688 -1.496094 29.921875 0 33.660156 0.5 C 36.152344 0.746094 38.398438 1.746094 41.140625 1.996094 C 44.878906 1.996094 48.871094 2.242188 52.609375 2.242188 C 54.855469 2.242188 57.097656 1.746094 59.09375 0.746094 C 61.835938 -0.25 64.328125 -1.496094 66.824219 -2.992188 C 69.316406 -4.488281 71.558594 -5.984375 73.804688 -7.980469 C 76.046875 -9.722656 78.292969 -11.71875 80.535156 -13.464844 C 81.285156 -13.964844 82.28125 -13.964844 83.03125 -14.460938 Z M 83.03125 -14.460938 "/></g></g></g><g fill="rgb(0%, 0%, 0%)" fill-opacity="1"><g transform="translate(467.577736, 204.749987)"><g><path d="M 10.222656 -83.527344 C 10.472656 -83.527344 10.472656 -83.527344 10.472656 -83.527344 C 10.472656 -70.0625 10.472656 -56.601562 10.222656 -43.136719 C 10.222656 -40.890625 10.222656 -38.898438 9.972656 -36.652344 C 9.722656 -31.167969 9.476562 -25.683594 9.226562 -20.195312 C 9.226562 -19.449219 9.226562 -18.449219 9.226562 -17.453125 C 9.476562 -13.714844 9.722656 -9.722656 9.972656 -5.984375 C 9.972656 -4.988281 10.222656 -3.988281 10.472656 -3.242188 C 10.972656 -1.496094 12.964844 0 14.960938 0.25 C 15.457031 0.25 16.207031 0.25 16.707031 0.25 C 23.1875 0.25 29.421875 0.25 35.90625 0.25 C 36.902344 0.25 37.898438 0 38.648438 -0.25 C 40.144531 -0.25 41.140625 -0.746094 42.386719 -1.496094 C 43.632812 -2.492188 44.632812 -3.738281 44.878906 -5.234375 C 45.128906 -5.984375 45.128906 -6.484375 45.128906 -7.230469 C 45.628906 -11.71875 45.878906 -16.207031 46.128906 -20.695312 C 46.128906 -25.683594 46.625 -30.917969 45.378906 -35.90625 C 44.878906 -37.402344 44.878906 -38.898438 44.878906 -40.640625 C 44.878906 -43.136719 44.878906 -45.628906 44.878906 -48.371094 C 44.878906 -84.773438 45.128906 -121.179688 45.128906 -157.582031 C 45.128906 -160.574219 45.128906 -163.816406 44.878906 -167.054688 C 44.878906 -168.054688 44.878906 -169.050781 44.632812 -169.800781 C 44.382812 -171.292969 43.382812 -172.292969 42.136719 -172.789062 C 41.140625 -173.039062 39.894531 -173.539062 38.648438 -173.539062 C 32.164062 -173.789062 25.929688 -173.789062 19.449219 -173.789062 C 17.953125 -173.789062 16.207031 -173.039062 14.960938 -172.292969 C 13.714844 -171.542969 12.964844 -170.796875 12.46875 -169.550781 C 11.21875 -165.558594 10.472656 -161.320312 10.472656 -157.332031 C 10.472656 -152.34375 10.222656 -147.609375 10.222656 -142.871094 C 10.222656 -123.171875 10.222656 -103.226562 10.222656 -83.527344 Z M 10.222656 -83.527344 "/></g></g></g><g fill="rgb(0%, 0%, 0%)" fill-opacity="1"><g transform="translate(522.930561, 204.749987)"><g/></g></g><g fill="rgb(0%, 0%, 0%)" fill-opacity="1"><g transform="translate(572.548616, 204.749987)"><g><path d="M 84.527344 -55.105469 C 89.011719 -55.105469 93.5 -55.105469 97.988281 -55.105469 C 98.988281 -55.105469 99.984375 -55.105469 100.980469 -54.855469 C 101.480469 -54.605469 101.980469 -54.355469 102.476562 -53.855469 C 103.722656 -52.859375 104.722656 -51.613281 105.21875 -50.117188 C 106.714844 -46.128906 108.210938 -42.386719 109.707031 -38.398438 C 110.207031 -37.152344 110.707031 -36.152344 110.957031 -34.90625 C 112.949219 -25.433594 116.691406 -16.457031 119.183594 -7.230469 C 119.683594 -5.984375 120.179688 -4.988281 120.679688 -3.738281 C 121.675781 -1.746094 123.171875 -0.996094 125.167969 -0.5 C 126.414062 0 127.660156 0 128.90625 0 C 137.136719 0 145.613281 -0.25 153.839844 -0.5 C 154.839844 -0.5 155.835938 -0.746094 156.582031 -0.996094 C 158.078125 -1.496094 159.078125 -3.738281 158.578125 -4.988281 C 157.832031 -6.980469 157.082031 -9.226562 156.335938 -11.21875 C 153.59375 -17.703125 151.097656 -24.1875 148.855469 -30.917969 C 148.105469 -33.160156 147.609375 -35.15625 146.859375 -37.402344 C 142.871094 -47.375 139.128906 -57.597656 134.144531 -67.320312 C 132.898438 -69.816406 131.648438 -72.558594 130.652344 -75.300781 C 128.410156 -81.285156 126.164062 -87.269531 124.417969 -93.253906 C 122.425781 -100.234375 120.179688 -107.464844 117.1875 -114.195312 C 112.699219 -124.417969 108.960938 -134.890625 105.21875 -145.363281 C 102.976562 -152.097656 99.984375 -158.578125 97.242188 -164.8125 C 96.492188 -166.308594 95.746094 -167.804688 94.75 -169.050781 C 93.75 -170.796875 92.253906 -172.042969 90.261719 -172.292969 C 81.285156 -174.285156 71.808594 -174.535156 62.582031 -174.285156 C 62.085938 -174.285156 61.335938 -174.039062 60.839844 -174.039062 C 60.089844 -173.789062 59.589844 -173.289062 59.09375 -173.039062 C 58.09375 -172.292969 57.347656 -171.292969 56.847656 -170.046875 C 54.855469 -166.308594 53.609375 -162.320312 51.863281 -158.578125 C 50.367188 -151.597656 47.871094 -145.113281 46.375 -138.132812 C 45.128906 -132.148438 43.382812 -126.414062 41.390625 -120.679688 C 39.644531 -115.941406 38.148438 -110.957031 36.902344 -106.21875 C 36.152344 -103.476562 35.40625 -100.484375 34.410156 -97.742188 C 33.160156 -94.5 32.664062 -91.007812 31.664062 -87.765625 C 30.667969 -84.027344 29.421875 -80.285156 28.425781 -76.796875 C 27.925781 -74.800781 27.179688 -73.054688 26.679688 -71.308594 C 25.433594 -65.824219 23.6875 -60.839844 21.941406 -55.601562 C 18.949219 -46.128906 15.957031 -36.902344 12.714844 -27.425781 C 10.222656 -19.945312 7.980469 -12.21875 5.234375 -4.738281 C 4.988281 -3.988281 4.988281 -3.492188 4.988281 -2.742188 C 4.988281 -2.492188 4.988281 -2.242188 5.234375 -1.996094 C 5.734375 -0.996094 6.234375 -0.5 7.230469 -0.25 C 9.226562 0.25 11.21875 0 12.964844 0 C 16.457031 0.25 18.449219 -1.496094 19.699219 -4.488281 C 19.945312 -4.988281 20.445312 -5.484375 20.445312 -6.234375 C 22.191406 -12.21875 24.433594 -18.203125 25.929688 -24.433594 C 26.429688 -26.679688 26.929688 -28.921875 27.675781 -30.917969 C 28.921875 -36.902344 31.167969 -42.636719 32.914062 -48.371094 C 34.160156 -51.863281 36.902344 -52.859375 39.644531 -53.109375 C 41.640625 -53.109375 43.382812 -53.109375 45.378906 -53.109375 C 48.871094 -53.109375 52.359375 -53.359375 55.851562 -53.359375 C 58.09375 -53.609375 60.339844 -53.609375 62.582031 -54.105469 C 66.824219 -54.855469 70.8125 -55.105469 75.050781 -55.105469 C 78.292969 -55.105469 81.285156 -55.105469 84.527344 -55.105469 Z M 62.335938 -62.582031 C 56.351562 -62.582031 50.117188 -62.582031 44.132812 -62.582031 C 42.886719 -62.582031 41.640625 -62.832031 40.394531 -63.082031 C 39.394531 -63.082031 38.148438 -64.828125 38.398438 -65.824219 C 38.898438 -66.824219 38.898438 -67.820312 39.394531 -68.566406 C 41.140625 -73.554688 42.386719 -78.292969 43.632812 -83.277344 C 47.625 -97.492188 47.125 -96.742188 51.613281 -109.707031 C 55.601562 -121.179688 59.34375 -132.898438 63.082031 -144.367188 C 63.332031 -144.863281 63.582031 -145.363281 63.832031 -146.113281 C 64.078125 -146.113281 64.328125 -146.359375 64.578125 -146.609375 C 65.078125 -146.859375 65.824219 -146.609375 66.074219 -146.113281 C 67.320312 -144.863281 67.820312 -143.121094 68.320312 -141.871094 C 69.316406 -139.128906 70.0625 -136.386719 70.8125 -133.644531 C 72.308594 -128.65625 74.054688 -123.921875 76.296875 -119.183594 C 80.785156 -109.460938 85.273438 -99.484375 89.511719 -89.761719 C 90.011719 -88.765625 90.261719 -87.765625 90.757812 -87.019531 C 92.753906 -80.785156 94.996094 -74.300781 97.492188 -68.070312 C 97.742188 -67.820312 97.742188 -67.570312 97.742188 -67.320312 C 97.988281 -66.074219 96.992188 -64.578125 95.746094 -64.578125 C 87.765625 -63.832031 79.789062 -63.332031 71.808594 -62.582031 C 68.816406 -62.582031 65.574219 -62.582031 62.335938 -62.582031 Z M 62.335938 -62.582031 "/></g></g></g><g fill="rgb(0%, 0%, 0%)" fill-opacity="1"><g transform="translate(735.61506, 204.749987)"><g><path d="M 10.222656 -83.527344 C 10.472656 -83.527344 10.472656 -83.527344 10.472656 -83.527344 C 10.472656 -70.0625 10.472656 -56.601562 10.222656 -43.136719 C 10.222656 -40.890625 10.222656 -38.898438 9.972656 -36.652344 C 9.722656 -31.167969 9.476562 -25.683594 9.226562 -20.195312 C 9.226562 -19.449219 9.226562 -18.449219 9.226562 -17.453125 C 9.476562 -13.714844 9.722656 -9.722656 9.972656 -5.984375 C 9.972656 -4.988281 10.222656 -3.988281 10.472656 -3.242188 C 10.972656 -1.496094 12.964844 0 14.960938 0.25 C 15.457031 0.25 16.207031 0.25 16.707031 0.25 C 23.1875 0.25 29.421875 0.25 35.90625 0.25 C 36.902344 0.25 37.898438 0 38.648438 -0.25 C 40.144531 -0.25 41.140625 -0.746094 42.386719 -1.496094 C 43.632812 -2.492188 44.632812 -3.738281 44.878906 -5.234375 C 45.128906 -5.984375 45.128906 -6.484375 45.128906 -7.230469 C 45.628906 -11.71875 45.878906 -16.207031 46.128906 -20.695312 C 46.128906 -25.683594 46.625 -30.917969 45.378906 -35.90625 C 44.878906 -37.402344 44.878906 -38.898438 44.878906 -40.640625 C 44.878906 -43.136719 44.878906 -45.628906 44.878906 -48.371094 C 44.878906 -84.773438 45.128906 -121.179688 45.128906 -157.582031 C 45.128906 -160.574219 45.128906 -163.816406 44.878906 -167.054688 C 44.878906 -168.054688 44.878906 -169.050781 44.632812 -169.800781 C 44.382812 -171.292969 43.382812 -172.292969 42.136719 -172.789062 C 41.140625 -173.039062 39.894531 -173.539062 38.648438 -173.539062 C 32.164062 -173.789062 25.929688 -173.789062 19.449219 -173.789062 C 17.953125 -173.789062 16.207031 -173.039062 14.960938 -172.292969 C 13.714844 -171.542969 12.964844 -170.796875 12.46875 -169.550781 C 11.21875 -165.558594 10.472656 -161.320312 10.472656 -157.332031 C 10.472656 -152.34375 10.222656 -147.609375 10.222656 -142.871094 C 10.222656 -123.171875 10.222656 -103.226562 10.222656 -83.527344 Z M 10.222656 -83.527344 "/></g></g></g><g fill="rgb(0%, 0%, 0%)" fill-opacity="1"><g transform="translate(790.967885, 204.749987)"><g><path d="M 10.222656 -83.527344 C 10.472656 -83.527344 10.472656 -83.527344 10.472656 -83.527344 C 10.472656 -70.0625 10.472656 -56.601562 10.222656 -43.136719 C 10.222656 -40.890625 10.222656 -38.898438 9.972656 -36.652344 C 9.722656 -31.167969 9.476562 -25.683594 9.226562 -20.195312 C 9.226562 -19.449219 9.226562 -18.449219 9.226562 -17.453125 C 9.476562 -13.714844 9.722656 -9.722656 9.972656 -5.984375 C 9.972656 -4.988281 10.222656 -3.988281 10.472656 -3.242188 C 10.972656 -1.496094 12.964844 0 14.960938 0.25 C 15.457031 0.25 16.207031 0.25 16.707031 0.25 C 23.1875 0.25 29.421875 0.25 35.90625 0.25 C 36.902344 0.25 37.898438 0 38.648438 -0.25 C 40.144531 -0.25 41.140625 -0.746094 42.386719 -1.496094 C 43.632812 -2.492188 44.632812 -3.738281 44.878906 -5.234375 C 45.128906 -5.984375 45.128906 -6.484375 45.128906 -7.230469 C 45.628906 -11.71875 45.878906 -16.207031 46.128906 -20.695312 C 46.128906 -25.683594 46.625 -30.917969 45.378906 -35.90625 C 44.878906 -37.402344 44.878906 -38.898438 44.878906 -40.640625 C 44.878906 -43.136719 44.878906 -45.628906 44.878906 -48.371094 C 44.878906 -84.773438 45.128906 -121.179688 45.128906 -157.582031 C 45.128906 -160.574219 45.128906 -163.816406 44.878906 -167.054688 C 44.878906 -168.054688 44.878906 -169.050781 44.632812 -169.800781 C 44.382812 -171.292969 43.382812 -172.292969 42.136719 -172.789062 C 41.140625 -173.039062 39.894531 -173.539062 38.648438 -173.539062 C 32.164062 -173.789062 25.929688 -173.789062 19.449219 -173.789062 C 17.953125 -173.789062 16.207031 -173.039062 14.960938 -172.292969 C 13.714844 -171.542969 12.964844 -170.796875 12.46875 -169.550781 C 11.21875 -165.558594 10.472656 -161.320312 10.472656 -157.332031 C 10.472656 -152.34375 10.222656 -147.609375 10.222656 -142.871094 C 10.222656 -123.171875 10.222656 -103.226562 10.222656 -83.527344 Z M 10.222656 -83.527344 "/></g></g></g><g fill="rgb(0%, 0%, 0%)" fill-opacity="1"><g transform="translate(846.320711, 204.749987)"><g><path d="M 65.328125 0.746094 C 67.070312 0.746094 69.066406 0.996094 71.0625 0.996094 C 76.546875 0.996094 81.78125 0.25 87.019531 -1.746094 C 93.75 -4.488281 100.234375 -7.730469 106.46875 -11.71875 C 107.464844 -12.21875 108.210938 -12.964844 108.960938 -13.464844 C 110.207031 -14.460938 110.707031 -15.957031 110.957031 -17.703125 C 111.203125 -19.945312 109.210938 -21.941406 106.964844 -21.691406 C 105.21875 -21.441406 103.722656 -21.441406 102.226562 -20.695312 C 99.234375 -19.449219 95.996094 -18.949219 93.003906 -17.953125 C 89.511719 -16.953125 86.019531 -16.707031 82.53125 -16.953125 C 79.289062 -17.203125 76.296875 -18.203125 73.304688 -19.199219 C 68.320312 -20.695312 63.832031 -23.1875 60.089844 -26.929688 C 55.601562 -30.917969 52.113281 -35.90625 48.871094 -40.890625 C 48.371094 -41.640625 48.121094 -42.136719 47.871094 -42.636719 C 45.878906 -48.121094 43.632812 -53.359375 42.386719 -59.09375 C 42.386719 -59.839844 43.632812 -61.835938 44.382812 -62.085938 C 45.128906 -62.335938 45.628906 -62.582031 46.128906 -62.832031 C 50.617188 -63.582031 55.105469 -63.832031 59.589844 -63.832031 C 66.324219 -63.832031 73.054688 -63.832031 79.789062 -63.832031 C 89.761719 -63.832031 99.484375 -64.328125 109.460938 -64.828125 C 110.457031 -64.828125 111.453125 -65.078125 112.203125 -65.328125 C 113.699219 -65.574219 114.695312 -66.324219 115.195312 -67.320312 C 115.941406 -68.566406 116.441406 -69.816406 116.691406 -71.0625 C 117.1875 -75.050781 116.691406 -79.289062 115.691406 -83.277344 C 115.195312 -85.523438 114.695312 -87.765625 114.195312 -89.761719 C 113.199219 -93.75 112.453125 -97.988281 110.957031 -101.980469 C 109.707031 -105.71875 107.464844 -108.710938 104.472656 -111.203125 C 98.238281 -116.691406 91.257812 -121.179688 83.03125 -123.421875 C 80.785156 -124.171875 78.789062 -124.667969 76.546875 -124.667969 C 73.554688 -124.667969 70.8125 -124.667969 68.070312 -123.671875 C 66.824219 -123.171875 65.574219 -123.171875 64.328125 -122.921875 C 58.84375 -121.675781 53.609375 -120.679688 48.371094 -118.933594 C 40.394531 -116.691406 32.914062 -112.949219 26.679688 -107.214844 C 25.683594 -106.46875 24.683594 -105.46875 23.9375 -104.722656 C 19.699219 -100.730469 16.457031 -95.996094 13.964844 -90.757812 C 10.472656 -83.03125 8.726562 -75.050781 7.230469 -66.824219 C 6.980469 -66.074219 6.980469 -65.574219 6.980469 -64.828125 C 6.730469 -56.351562 6.484375 -47.625 8.726562 -39.144531 C 9.226562 -35.90625 10.472656 -33.160156 11.96875 -30.167969 C 14.710938 -25.433594 17.953125 -21.195312 21.941406 -17.453125 C 22.691406 -16.707031 23.4375 -16.207031 24.1875 -15.457031 C 30.417969 -11.21875 36.902344 -6.980469 43.882812 -3.738281 C 48.871094 -1.496094 54.105469 0.25 59.589844 0.5 C 61.335938 0.5 63.332031 0.5 65.328125 0.746094 Z M 63.832031 -72.308594 C 59.09375 -72.308594 54.355469 -72.308594 49.617188 -72.308594 C 48.371094 -72.308594 47.125 -72.558594 45.878906 -72.804688 C 44.632812 -73.054688 43.382812 -74.300781 43.382812 -75.550781 C 43.136719 -76.046875 43.136719 -76.796875 43.136719 -77.292969 C 43.136719 -78.542969 43.382812 -79.789062 43.632812 -81.035156 C 44.632812 -86.019531 46.128906 -91.007812 47.871094 -95.746094 C 48.121094 -96.992188 48.871094 -97.988281 49.617188 -99.234375 C 51.113281 -101.480469 52.859375 -103.722656 55.105469 -105.71875 C 56.601562 -107.464844 58.59375 -108.710938 60.589844 -109.460938 C 63.332031 -110.457031 65.824219 -111.453125 68.816406 -111.703125 C 70.8125 -111.703125 72.558594 -111.953125 74.550781 -111.953125 C 78.292969 -111.953125 81.285156 -110.207031 83.277344 -106.964844 C 84.527344 -104.722656 85.523438 -102.476562 85.773438 -99.984375 C 86.019531 -98.988281 86.269531 -97.988281 86.269531 -96.992188 C 86.269531 -92.003906 86.269531 -86.769531 86.019531 -81.78125 C 86.019531 -80.535156 85.773438 -79.289062 85.773438 -78.042969 C 85.273438 -74.054688 83.03125 -72.804688 80.039062 -72.558594 C 77.292969 -72.308594 74.300781 -72.308594 71.558594 -72.308594 C 69.066406 -72.308594 66.324219 -72.308594 63.832031 -72.308594 Z M 63.832031 -72.308594 "/></g></g></g><g fill="rgb(0%, 0%, 0%)" fill-opacity="1"><g transform="translate(970.241265, 204.749987)"><g><path d="M 10.472656 -62.335938 C 10.472656 -55.601562 10.472656 -48.871094 10.222656 -42.136719 C 9.722656 -30.667969 10.472656 -19.199219 10.222656 -7.730469 C 10.222656 -7.230469 10.222656 -6.980469 10.222656 -6.730469 C 10.472656 -3.988281 11.96875 -1.996094 14.460938 -0.746094 C 15.210938 -0.25 16.207031 0 17.203125 0 C 24.1875 0 31.167969 0 38.148438 0 C 38.898438 0 39.394531 -0.25 40.144531 -0.25 C 42.136719 -0.5 44.382812 -2.992188 44.382812 -4.738281 C 44.632812 -5.484375 44.632812 -5.984375 44.632812 -6.730469 C 44.382812 -17.203125 44.878906 -27.675781 43.632812 -38.148438 C 43.382812 -40.394531 43.382812 -42.636719 43.382812 -44.878906 C 43.136719 -58.09375 43.136719 -71.0625 43.136719 -84.277344 C 43.136719 -86.269531 43.136719 -88.015625 43.382812 -90.011719 C 43.382812 -91.507812 43.882812 -93.003906 44.382812 -94.75 C 44.878906 -96.492188 45.878906 -98.238281 47.375 -99.484375 C 49.867188 -101.480469 52.609375 -103.226562 55.351562 -104.722656 C 55.851562 -104.972656 56.601562 -105.21875 57.097656 -105.46875 C 58.84375 -105.96875 60.839844 -106.46875 62.582031 -106.964844 C 67.070312 -107.964844 71.558594 -107.464844 75.796875 -105.71875 C 77.792969 -104.722656 79.539062 -103.476562 81.035156 -101.480469 C 83.03125 -98.238281 84.773438 -94.75 85.273438 -91.007812 C 85.523438 -89.011719 85.523438 -87.269531 85.773438 -85.273438 C 85.773438 -80.785156 85.523438 -76.296875 85.523438 -71.808594 C 85.523438 -54.355469 85.273438 -36.652344 85.273438 -19.199219 C 85.023438 -16.707031 85.023438 -13.964844 85.273438 -11.46875 C 85.273438 -8.976562 86.269531 -6.484375 87.515625 -4.238281 C 88.015625 -3.492188 88.765625 -2.742188 89.511719 -2.242188 C 91.507812 -0.996094 93.5 0 95.746094 0 C 101.480469 0 107.214844 0 112.949219 0 C 113.699219 0 114.195312 -0.25 114.945312 -0.25 C 116.9375 -0.5 118.933594 -2.742188 119.433594 -4.738281 C 119.929688 -6.980469 119.929688 -8.976562 119.929688 -11.21875 C 119.433594 -27.675781 119.683594 -43.882812 119.683594 -60.089844 C 119.683594 -68.566406 119.683594 -76.796875 119.683594 -85.023438 C 119.683594 -91.507812 119.183594 -97.742188 117.4375 -103.972656 C 116.191406 -108.710938 113.945312 -112.949219 110.207031 -116.191406 C 107.964844 -118.433594 105.21875 -120.179688 102.476562 -121.675781 C 99.484375 -122.921875 96.492188 -124.171875 93.253906 -124.417969 C 88.265625 -124.667969 83.03125 -124.917969 78.042969 -123.421875 C 76.796875 -122.921875 75.550781 -122.675781 74.300781 -122.675781 C 71.0625 -122.675781 68.070312 -121.425781 65.078125 -120.429688 C 61.835938 -119.433594 58.59375 -117.9375 55.601562 -115.941406 C 52.609375 -114.195312 49.617188 -112.203125 46.625 -110.457031 C 45.878906 -109.957031 44.632812 -110.707031 44.382812 -111.453125 C 44.132812 -112.949219 44.382812 -114.695312 44.132812 -116.191406 C 44.132812 -117.1875 44.132812 -118.1875 43.882812 -119.183594 C 43.632812 -120.929688 41.640625 -122.675781 40.144531 -122.921875 C 39.394531 -122.921875 38.898438 -123.171875 38.148438 -123.171875 C 30.917969 -123.171875 23.4375 -123.171875 16.207031 -123.171875 C 15.457031 -123.171875 14.960938 -122.921875 14.210938 -122.921875 C 13.214844 -122.675781 12.46875 -122.175781 11.96875 -121.425781 C 11.21875 -120.179688 10.722656 -119.183594 10.472656 -117.6875 C 10.472656 -114.695312 10.222656 -111.453125 10.222656 -108.210938 C 10.222656 -101.480469 10.472656 -94.75 10.472656 -88.015625 C 10.472656 -79.539062 10.472656 -70.8125 10.472656 -62.335938 Z M 10.472656 -62.335938 "/></g></g></g></svg>